<svg width="2876" height="2799" viewBox="0 0 2876 2799" fill="none" xmlns="http://www.w3.org/2000/svg">
<path fill-rule="evenodd" clip-rule="evenodd" d="M2874.78 1459.9C2874.51 1483.35 2873.03 1506.78 2870.35 1530.09C2868.7 1545.96 2867.18 1561.96 2865.15 1577.84C2862.36 1599.17 2859.06 1620.25 2855.26 1641.45C2849.18 1674.94 2842.58 1708.17 2833.58 1740.67C2819.94 1794 2803 1846.47 2782.87 1897.79C2763.47 1947.05 2741.25 1995.21 2716.31 2042.02C2698.57 2075.09 2679.51 2107.67 2659.14 2139.74C2635.39 2176.54 2610.03 2212.25 2583.07 2246.89C2561.27 2274.67 2538.45 2301.83 2514.61 2328C2494.2 2350.32 2473.28 2372.15 2451.22 2393.11C2415.35 2427.6 2377.65 2460.22 2338.27 2490.83C2298.69 2521.81 2257.52 2550.79 2214.91 2577.64C2107.55 2644.77 1991.6 2697.77 1870.08 2735.26C1817.95 2751.26 1764.91 2764.27 1711.23 2774.2C1687.9 2778.54 1664.45 2782.39 1640.87 2785.36C1623.5 2787.6 1606.13 2789.7 1588.76 2791.32C1571.4 2792.93 1552 2794.66 1533.62 2795.78C1523.73 2796.44 1513.84 2796.94 1503.95 2797.27C1502.3 2797.27 1500.4 2797.27 1499.13 2798.51H1385.03C1383.89 2797.14 1382.37 2797.39 1380.85 2797.27C1367.41 2797.27 1354.1 2796.28 1340.66 2795.28C1327.22 2794.29 1309.86 2792.8 1294.52 2791.44C1284.25 2790.45 1273.85 2789.46 1263.58 2788.09C1247.23 2786.11 1231 2784.12 1214.65 2781.64C1193.47 2778.29 1172.3 2774.57 1151.26 2770.48C1114.49 2763.16 1078.11 2754.61 1042.1 2744.56C941.46 2716.66 844.302 2677.89 752.419 2628.98C718.612 2611.04 685.608 2591.78 653.406 2571.19C616.726 2547.71 581.228 2522.7 546.914 2496.16C521.559 2476.32 496.203 2455.49 471.609 2434.15C447.014 2412.82 426.857 2393.35 405.685 2372.15C371.878 2337.92 339.888 2302.24 309.715 2265.12C283.346 2232.55 258.54 2198.9 235.297 2164.18C212.055 2129.45 190.925 2094.64 171.909 2059.76C120.374 1965.7 80.0484 1866.17 51.7248 1763.11C42.0053 1727.64 33.5535 1691.85 26.3695 1655.72C21.9323 1632.65 18.2558 1609.58 14.9596 1586.39C12.2973 1567.05 10.1421 1547.7 8.1137 1528.35C7.09949 1520.04 6.71916 1511.61 6.08527 1503.55C5.19784 1492.14 4.3104 1480.86 3.67652 1469.57C3.04264 1458.29 3.67652 1449.85 2.66231 1439.93C2.66231 1436.46 2.66231 1433.11 1.90165 1429.64C1.88351 1429.02 1.69778 1428.42 1.36355 1427.9C1.02932 1427.37 0.558667 1426.95 0 1426.66V1370.48C0.665637 1370.31 1.23578 1369.89 1.59045 1369.31C1.94512 1368.73 2.05668 1368.04 1.90165 1367.38C1.90165 1364.03 2.66231 1360.56 2.78908 1357.09C3.54974 1340.84 3.93007 1324.6 5.07106 1308.35C6.4656 1289.13 7.86015 1270.03 10.3957 1250.93C12.1705 1237.66 13.4383 1224.52 15.34 1211.25C17.7487 1194.26 20.2842 1177.14 23.3269 1160.15C27.8908 1133.62 33.469 1107.32 39.6811 1081.16C57.3683 1007.45 81.0669 935.25 110.549 865.249C128.084 823.464 147.759 782.57 169.5 742.722C200.639 685.615 235.887 630.745 274.978 578.527C297.967 547.772 322.139 517.967 347.495 489.113C364.398 470.015 381.724 451.371 399.473 433.182C411.39 420.781 423.434 409.124 435.731 397.342C467.805 366.959 501.275 337.815 536.138 310.532C571.002 283.249 607.133 256.834 644.278 232.651C674.62 212.974 705.681 194.413 737.459 176.969C763.829 162.583 790.579 149.189 817.709 136.54C859.038 117.194 901.297 99.9143 944.485 84.7018C996.762 66.1078 1050.1 50.4971 1104.22 37.9484C1136.26 30.6729 1168.25 24.3482 1200.19 18.9742C1222.68 15.3364 1245.2 12.1534 1267.77 9.42509C1279.56 7.93692 1291.35 6.94481 1303.26 5.82868C1318.6 4.46452 1333.94 2.97635 1349.41 1.98423C1364.88 0.992115 1380.47 0.620072 1395.68 0H1401.64C1428.01 0 1454.38 0 1480.75 0H1486.84C1504.2 0 1521.7 1.36416 1539.07 2.6043C1548.2 3.34839 1557.32 3.72043 1566.32 4.58853C1579 5.70466 1591.68 6.94481 1604.36 8.30896C1613.87 9.30108 1623.5 10.4172 1633.01 11.7814C1651.01 14.3857 1669.01 16.7419 1687.02 19.7183C1720.23 25.2989 1753.07 32.1197 1785.77 40.0567C1832.43 51.3006 1878.41 64.8595 1923.71 80.7334C1989 103.714 2052.55 131.19 2113.87 162.955C2172.67 193.409 2229.23 227.845 2283.12 266.011C2313.97 287.755 2343.8 310.615 2372.62 334.591C2392.91 351.457 2412.43 368.943 2431.83 386.801C2451.22 404.659 2471.76 425.245 2490.91 445.336C2531.29 487.556 2568.93 532.206 2603.61 579.023C2627.95 612.094 2650.86 645.826 2672.32 680.219C2699.77 724.815 2724.7 770.853 2746.99 818.123C2771.64 870.817 2792.81 924.997 2810.38 980.334C2823.06 1019.89 2833.84 1059.83 2842.96 1100.38C2849.56 1129.77 2855.01 1159.29 2859.57 1189.05C2862.87 1210.75 2865.78 1232.46 2867.94 1254.28C2869.71 1271.77 2871.24 1289.13 2872.5 1306.62C2873.39 1317.65 2873.64 1328.81 2873.9 1339.85C2873.9 1355.11 2873.9 1370.24 2873.9 1385.49C2873.85 1386.1 2873.93 1386.72 2874.15 1387.3C2874.37 1387.88 2874.72 1388.4 2875.17 1388.84V1409.55C2874.64 1410.36 2874.22 1411.24 2873.9 1412.15C2873.9 1413.76 2873.9 1415.5 2873.9 1417.24L2874.78 1459.9ZM1343.7 2751.51C1343.98 2751.75 1344.34 2751.89 1344.72 2751.89C1345.09 2751.89 1345.45 2751.75 1345.73 2751.51C1355.49 2751.51 1365.38 2752.75 1375.27 2753.12C1392.77 2753.74 1410.14 2754.36 1427.63 2754.48C1442.34 2754.48 1457.04 2754.48 1471.75 2754.48C1501.03 2753.62 1530.45 2752.25 1559.73 2749.9C1580.4 2748.16 1600.93 2745.93 1621.6 2743.32C1650 2739.73 1678.14 2735.26 1706.29 2729.8C1811.02 2709.79 1913.09 2678.21 2010.55 2635.68C2059.97 2614.04 2108.05 2589.61 2154.57 2562.51C2199.14 2536.58 2242.19 2508.22 2283.5 2477.56C2323.6 2447.83 2361.99 2415.95 2398.49 2382.07C2424.6 2357.93 2449.7 2332.79 2473.79 2306.67C2497.88 2280.54 2520.28 2254.46 2540.98 2228.41C2598.46 2156.24 2648.28 2078.54 2689.69 1996.51C2715.41 1945.34 2737.73 1892.61 2756.5 1838.64C2771.45 1795.44 2784.14 1751.52 2794.54 1707.06C2800.11 1683.5 2805.31 1659.93 2809.37 1636C2812.28 1618.76 2815.33 1601.52 2817.86 1584.16C2819.76 1571.76 2821.29 1558.24 2822.68 1545.34C2824.07 1532.45 2824.96 1520.54 2826.23 1508.14C2828.26 1489.17 2829.15 1470.19 2830.03 1451.22C2831.05 1426.41 2831.05 1401.61 2830.03 1376.81C2830.03 1364.41 2830.03 1351.01 2829.27 1338.24C2828.13 1320.01 2827.5 1301.78 2825.47 1283.67C2824.07 1271.27 2823.31 1258.13 2821.79 1245.35C2819.26 1225.26 2816.59 1205.3 2813.3 1185.33C2808.1 1153.09 2801.76 1121.21 2794.03 1089.47C2729.12 819.579 2580.94 575.744 2369.58 391.017C2284.24 316.398 2189.89 252.262 2088.64 200.035C2048.86 179.368 2008.03 160.7 1966.3 144.105C1893.69 114.953 1818.66 91.9268 1742.04 75.2767C1716.68 69.6548 1691.07 64.8182 1665.21 60.7671C1650.76 58.4108 1636.3 56.4266 1621.73 54.5663C1607.15 52.7061 1591.05 50.9699 1575.71 49.6058C1560.37 48.2416 1541.86 46.8774 1525 45.5133C1504.96 43.7771 1484.93 43.6531 1465.03 43.033C1436.63 42.1649 1408.23 43.033 1379.96 44.1491H1368.55C1350.55 45.3893 1332.68 46.5054 1314.8 47.9936C1296.92 49.4818 1280.95 50.9699 1264.09 53.0782C1245.07 55.4344 1226.06 58.4108 1207.04 61.2631C1177.25 65.7276 1147.83 71.6803 1118.3 78.3771C1004.55 104.258 894.7 144.399 791.466 197.803C736.585 226.061 683.649 257.793 632.995 292.798C593.429 320.195 555.345 349.585 518.896 380.848C492.358 403.502 467.003 427.106 442.831 451.66C415.616 479.192 389.584 507.467 364.736 536.486C324.955 583.593 288.527 633.316 255.708 685.304C181.235 802.976 125.653 931.126 90.8988 1065.28C83.5457 1093.81 77.0801 1122.5 71.502 1151.35C68.079 1169.95 64.656 1188.55 62.1205 1207.53C59.585 1226.5 57.303 1242.62 55.2746 1260.36C53.7533 1274 52.9926 1287.89 51.7248 1301.53C49.5696 1323.98 48.809 1346.42 48.0483 1368.75C47.2877 1391.07 48.0483 1416.62 48.0483 1440.55C48.0483 1464.49 50.5838 1490.16 52.739 1515.95C54.3871 1536.54 56.7959 1557.12 59.585 1577.96C63.1347 1604.37 67.4451 1630.54 72.2626 1656.71C82.6722 1708.33 96.1761 1759.3 112.704 1809.37C137.742 1886.83 170.082 1961.85 209.308 2033.46C227.141 2065.96 246.2 2097.66 266.484 2128.58C313.992 2200.71 368.277 2268.34 428.632 2330.6C449.507 2352.18 471.102 2372.85 493.414 2392.61C527.221 2423.37 562.677 2452.3 599.78 2479.42C667.633 2529.64 740.125 2573.57 816.314 2610.63C853.164 2628.65 890.859 2645.19 929.399 2660.23C985.551 2681.75 1043.06 2699.73 1101.56 2714.06C1138.66 2723.07 1176.11 2730.63 1213.89 2736.75C1237.34 2740.47 1260.92 2743.82 1284.5 2746.3C1304.4 2748.41 1323.67 2749.9 1343.7 2751.51Z" fill="url(#paint0_linear_813_2)"/>
<path fill-rule="evenodd" clip-rule="evenodd" d="M957.567 12.7669C957.703 14.2554 957.345 15.7471 956.546 17.0206C955.747 18.294 954.549 19.2813 953.13 19.8357L949.453 21.4479C913.576 33.8494 878.078 46.2508 843.215 61.2566C804.168 77.6265 765.67 95.4846 727.721 114.831C680.507 139.673 634.676 166.953 590.422 196.556C549.516 224.005 510.004 253.272 471.886 284.359C425.853 322.123 382.125 362.497 340.926 405.273C310.753 436.69 282.059 469.264 254.845 502.996C229.489 534.661 205.317 567.235 182.329 600.719C155.959 639.577 131.534 679.634 109.052 720.889C98.9097 740.236 88.6408 759.706 79.1325 779.672C79.1325 780.54 78.2451 781.532 77.738 782.276C77.4004 783.08 76.8937 783.806 76.2509 784.406C75.608 785.006 74.8434 785.467 74.0066 785.76C73.1698 786.052 72.2795 786.169 71.3935 786.103C70.5075 786.037 69.6456 785.79 68.8636 785.377C67.1338 784.614 65.7444 783.264 64.9522 781.578C64.1599 779.891 64.0182 777.981 64.5532 776.2C64.5532 774.836 65.821 773.471 66.4549 772.107C94.3727 714.566 126.136 658.887 161.537 605.432C190.035 562.586 220.755 521.193 253.577 481.417C273.227 457.607 293.765 434.416 314.937 411.845C336.109 389.275 359.943 365.092 383.65 342.893C421.442 307.468 461.047 273.941 502.313 242.442C537.472 215.655 573.73 190.397 611.087 166.669C643.88 145.834 677.687 126.24 712.508 107.886C754.218 85.1913 797.322 65.225 841.693 46.2508C874.993 32.3612 908.8 19.6291 943.115 8.05438C945.181 7.32292 947.299 6.74259 949.453 6.31818C950.436 6.08973 951.46 6.08537 952.445 6.30543C953.43 6.5255 954.35 6.96409 955.134 7.58734C955.918 8.21059 956.546 9.00182 956.968 9.89991C957.389 10.798 957.594 11.7789 957.567 12.7669Z" fill="url(#paint1_linear_813_2)"/>
<path fill-rule="evenodd" clip-rule="evenodd" d="M2090.44 68.2051C2092.22 68.2326 2093.96 68.702 2095.51 69.5692L2110.59 76.6381C2179.08 109.251 2244.94 146.894 2307.6 189.243C2344.88 214.046 2380.97 240.75 2415.87 269.356C2438.61 287.793 2460.79 306.891 2482.43 326.651C2505.5 347.486 2527.56 369.188 2549.24 391.263C2553.64 395.355 2557.59 399.885 2561.03 404.78C2563.4 407.696 2566.07 410.357 2569.02 412.717C2592.34 437.52 2614.66 462.323 2636.21 489.11C2668.9 528.894 2699.49 570.286 2727.87 613.124C2750.1 646.691 2770.89 681.126 2790.24 716.428C2819.58 769.926 2845.53 825.133 2867.96 881.74C2867.96 882.98 2868.97 884.096 2869.35 885.212C2870.11 886.661 2870.26 888.346 2869.76 889.901C2869.26 891.455 2868.16 892.756 2866.69 893.521C2865.05 894.52 2863.07 894.858 2861.18 894.465C2859.29 894.072 2857.63 892.978 2856.55 891.413C2855.46 889.781 2854.57 888.034 2853.88 886.204C2848.81 873.803 2844 861.401 2838.92 849.744C2819.02 803.115 2796.55 757.576 2771.61 713.328C2747.94 670.832 2722.12 629.494 2694.15 589.314C2668.79 553.597 2642.29 518.997 2614.66 485.514C2595.89 463.191 2576.62 441.488 2556.47 420.034C2552.28 415.569 2548.48 410.733 2543.79 406.392C2539.1 402.052 2535.17 397.339 2531.11 392.875L2517.29 379.109L2503.85 366.088L2490.29 353.066C2459.1 324.171 2426.9 296.268 2393.69 269.728C2357.85 241.371 2320.79 214.666 2282.5 189.615C2250.22 168.45 2217.04 148.525 2182.98 129.84C2157.63 116.075 2132.27 103.053 2106.92 90.7757L2090.44 83.2108L2086.25 81.2266C2084.86 80.6013 2083.74 79.5027 2083.11 78.1345C2082.48 76.7663 2082.38 75.2212 2082.83 73.7857C2083.41 72.2371 2084.44 70.8863 2085.79 69.8962C2087.14 68.906 2088.75 68.3187 2090.44 68.2051Z" fill="url(#paint2_linear_813_2)"/>
<path fill-rule="evenodd" clip-rule="evenodd" d="M892.42 2770.48C892.45 2771.59 892.186 2772.69 891.654 2773.67C891.122 2774.65 890.34 2775.48 889.384 2776.08C888.427 2776.68 887.329 2777.03 886.195 2777.09C885.061 2777.15 883.93 2776.93 882.912 2776.43C874.165 2772.46 865.163 2769.24 856.289 2765.52C819.524 2750.14 783.519 2733.15 748.149 2715.05C687.65 2683.91 629.37 2648.82 573.704 2610.01C539.474 2586.2 506.344 2561.02 474.311 2534.48C458.464 2521.34 442.998 2507.82 427.658 2494.3C399.386 2469.5 372.51 2442.59 346.14 2415.68C344.267 2413.99 342.683 2412.02 341.45 2409.85C341.05 2408.97 340.492 2408.17 339.801 2407.49C325.349 2393.85 312.544 2378.97 299.486 2364.21C274.131 2335.19 249.748 2305.22 226.336 2274.3C196.924 2235.03 169.498 2194.48 144.058 2152.64C124.788 2121.06 106.786 2088.77 90.0517 2055.79C64.1852 2004.92 41.3691 1952.62 21.7191 1899.16C16.7748 1885.51 12.0841 1871.75 7.26658 1857.86C6.6327 1856.25 6.25237 1854.63 5.61849 1853.02C5.3442 1852.19 5.24168 1851.32 5.3169 1850.45C5.39212 1849.58 5.64358 1848.73 6.05661 1847.96C6.46964 1847.18 7.03597 1846.5 7.72256 1845.94C8.40916 1845.38 9.20228 1844.97 10.0557 1844.71C11.693 1844.02 13.5383 1843.97 15.2125 1844.57C16.8866 1845.17 18.2623 1846.38 19.0568 1847.94C20.1204 1849.9 20.9296 1851.98 21.4656 1854.14C31.6077 1884.15 42.6372 1913.83 54.5542 1943.18C94.0597 2039.5 143.954 2131.41 203.39 2217.38C231.281 2257.8 261.115 2296.75 292.894 2334.2C309.629 2353.92 326.87 2373.39 344.746 2392.24L345.76 2393.35C364.523 2413.94 385.695 2435.27 406.613 2455.36C427.531 2475.45 447.815 2493.43 469.24 2511.54C503.639 2540.81 539.305 2568.42 576.24 2594.38C616.639 2622.9 658.433 2649.4 701.622 2673.87C749.991 2701.46 799.939 2726.3 851.218 2748.28C861.867 2752.87 872.643 2757.21 883.292 2761.68C885.233 2762.37 887.101 2763.24 888.871 2764.28C889.961 2764.92 890.861 2765.83 891.483 2766.92C892.105 2768.01 892.428 2769.23 892.42 2770.48Z" fill="url(#paint3_linear_813_2)"/>
<path fill-rule="evenodd" clip-rule="evenodd" d="M1989.03 2789.7C1987.6 2789.83 1986.18 2789.45 1985.01 2788.63C1983.85 2787.8 1983.02 2786.6 1982.69 2785.24C1982.15 2783.83 1982.07 2782.29 1982.48 2780.84C1982.9 2779.39 1983.77 2778.11 1984.98 2777.17C1987.08 2775.85 1989.34 2774.77 1991.69 2773.95C2001.33 2770.23 2011.09 2766.63 2020.73 2762.79C2071.6 2742.7 2121.29 2719.84 2169.56 2694.33C2215.12 2670.01 2259.38 2643.44 2302.17 2614.72C2342.57 2587.6 2381.57 2558.66 2419.18 2527.91C2463.32 2491.62 2505.31 2452.9 2544.95 2411.95C2571.32 2384.79 2596.55 2356.39 2621.01 2327.25C2697.64 2235.2 2762.49 2134.33 2814.09 2026.89C2819.8 2014.49 2825.25 2002.08 2830.83 1990.43C2831.87 1987.91 2833.1 1985.46 2834.5 1983.11C2835.26 1981.95 2836.45 1981.12 2837.82 1980.79C2839.19 1980.47 2840.64 1980.68 2841.86 1981.37C2843.83 1982.24 2845.38 1983.83 2846.19 1985.79C2846.99 1987.76 2846.98 1989.95 2846.17 1991.92C2843.25 1997.87 2840.84 2004.32 2838.05 2010.15C2824.79 2039.25 2810.59 2067.89 2795.46 2096.09C2776.82 2130.94 2756.54 2164.79 2734.99 2198.03C2705.97 2242.63 2674.48 2285.64 2640.66 2326.88C2618.6 2353.91 2595.66 2380.2 2571.57 2405.63C2552.05 2426.34 2532.02 2446.68 2511.35 2466.27C2487.64 2488.47 2463.3 2510.17 2438.33 2531.01C2388.87 2572.27 2336.79 2610.41 2282.39 2645.22C2248.42 2666.93 2213.68 2687.14 2178.18 2706.24C2142.69 2725.34 2108.2 2741.83 2072.07 2757.7C2046.72 2768.7 2021.36 2779.03 1996 2788.71C1993.77 2789.47 1991.4 2789.8 1989.03 2789.7Z" fill="url(#paint4_linear_813_2)"/>
<path fill-rule="evenodd" clip-rule="evenodd" d="M2714.58 1484.82C2715.72 1462.38 2716.98 1439.93 2717.62 1417.49C2717.62 1403.72 2718.25 1389.83 2717.62 1376.06C2717.62 1357.09 2716.98 1338.12 2715.72 1319.14C2714.07 1292.6 2711.79 1266.06 2708.49 1239.52C2702.49 1191.56 2693.81 1143.95 2682.5 1096.91C2664.45 1022.2 2639.33 949.291 2607.45 879.138C2595.41 852.475 2582.09 826.184 2568.4 800.513C2567.19 798.633 2566.17 796.639 2565.36 794.561C2564.67 792.828 2564.67 790.902 2565.38 789.174C2566.09 787.446 2567.44 786.046 2569.16 785.26C2570.73 784.454 2572.54 784.249 2574.26 784.685C2575.97 785.121 2577.45 786.166 2578.42 787.616C2579.55 789.239 2580.57 790.938 2581.46 792.701C2610.96 846.271 2636.39 901.898 2657.53 959.128C2677 1012.57 2692.84 1067.22 2704.94 1122.7C2711.96 1155.36 2717.74 1188.14 2722.31 1221.05C2725.22 1241.88 2727.51 1262.71 2729.03 1283.05C2730.55 1303.39 2731.44 1321.5 2732.45 1340.72C2733.85 1366.39 2733.85 1392.06 2733.21 1417.61C2732.58 1443.16 2731.56 1467.96 2729.28 1493.01C2727.76 1510 2726.11 1526.87 2724.08 1543.73C2721.55 1564.81 2718.38 1585.9 2714.58 1606.73C2707.6 1646.04 2698.85 1685.11 2688.08 1723.68C2674.44 1772.7 2657.76 1820.87 2638.13 1867.91C2637.41 1869.78 2636.57 1871.6 2635.59 1873.36C2634.73 1874.89 2633.39 1876.1 2631.77 1876.81C2630.15 1877.53 2628.33 1877.71 2626.59 1877.33C2625.71 1877.23 2624.85 1876.95 2624.09 1876.5C2623.33 1876.06 2622.67 1875.45 2622.16 1874.74C2621.66 1874.02 2621.32 1873.2 2621.16 1872.35C2621.01 1871.49 2621.04 1870.61 2621.27 1869.77C2621.61 1868.09 2622.16 1866.47 2622.92 1864.93C2648.34 1804.62 2668.77 1742.41 2684.02 1678.91C2691.88 1646.25 2698.39 1613.18 2703.55 1579.7C2706.97 1557.5 2709.63 1535.17 2712.17 1512.98C2713.05 1504.05 2713.69 1495.24 2714.45 1486.31C2714.6 1486.1 2714.69 1485.85 2714.72 1485.59C2714.74 1485.32 2714.69 1485.06 2714.58 1484.82Z" fill="url(#paint5_linear_813_2)"/>
<path fill-rule="evenodd" clip-rule="evenodd" d="M123.616 1410.28C123.616 1393.79 123.616 1377.17 123.616 1360.68C124.377 1332.9 125.518 1304.99 128.18 1277.22C130.97 1247.29 134.773 1217.44 139.59 1187.68C159.145 1066.9 196.466 949.519 250.393 839.196C258.253 823.198 266.367 807.201 274.988 791.575C275.834 789.774 276.808 788.034 277.904 786.366C278.816 784.996 280.219 784.008 281.836 783.596C283.454 783.183 285.17 783.375 286.651 784.134C288.436 784.805 289.897 786.11 290.742 787.788C291.588 789.465 291.757 791.393 291.215 793.187C291.215 794.551 289.821 795.791 289.187 797.155C273.973 825.307 259.521 853.83 246.463 882.973C234.8 909.016 224.024 935.307 214.262 962.095C197.639 1007.36 183.713 1053.53 172.552 1100.37C164.819 1132.99 158.353 1165.97 153.155 1199.58C149.775 1221.99 146.943 1244.52 144.661 1267.17C143.14 1282.67 142.126 1298.17 141.112 1313.68C138.956 1345.42 137.942 1377.17 138.703 1409.04C138.703 1426.28 139.464 1443.52 140.858 1460.76C142.126 1476.01 142.887 1491.26 144.408 1506.52C145.929 1521.77 147.831 1537.4 149.732 1552.78C151.888 1570.14 154.677 1587.5 157.719 1604.74C163.551 1638.59 170.397 1672.08 179.778 1705.19C194.088 1759.44 212.131 1812.68 233.785 1864.55C234.49 1866.12 235.083 1867.73 235.56 1869.38C235.832 1870.47 235.822 1871.6 235.532 1872.68C235.242 1873.76 234.682 1874.75 233.901 1875.56C233.12 1876.38 232.143 1876.99 231.061 1877.34C229.978 1877.69 228.823 1877.77 227.7 1877.57C226.31 1877.47 224.969 1877.02 223.813 1876.26C222.656 1875.5 221.724 1874.45 221.108 1873.23C220.22 1871.37 219.46 1869.51 218.699 1867.77C194.018 1809.11 174.054 1748.66 158.987 1686.96C150.113 1650.99 143.013 1614.66 137.435 1578.07C133.97 1555.59 131.181 1533.06 129.068 1510.49C126.659 1484.69 124.631 1458.9 124.25 1432.98C124.25 1425.54 123.49 1418.22 123.109 1410.78L123.616 1410.28Z" fill="url(#paint6_linear_813_2)"/>
<path fill-rule="evenodd" clip-rule="evenodd" d="M1463.53 2658C1458.84 2658 1450.86 2658.74 1443.12 2658.62C1432.47 2658.62 1421.95 2657.87 1411.3 2657.62C1384.17 2657.62 1357.04 2656.26 1330.04 2654.28C1303.03 2652.29 1277.68 2649.56 1251.56 2646.09C1197.12 2638.88 1143.18 2628.4 1090.05 2614.72C1032.02 2599.65 975.133 2580.67 919.788 2557.92C908.378 2553.2 896.968 2548.24 885.685 2543.41C884.021 2542.79 882.41 2542.04 880.868 2541.18C880.028 2540.88 879.262 2540.42 878.622 2539.81C877.982 2539.21 877.482 2538.47 877.158 2537.66C876.833 2536.85 876.691 2535.98 876.74 2535.11C876.79 2534.24 877.03 2533.39 877.445 2532.62C878.131 2530.86 879.452 2529.41 881.158 2528.54C882.863 2527.68 884.835 2527.45 886.7 2527.91C889.549 2528.87 892.342 2529.99 895.067 2531.25C914.717 2539.94 934.621 2548 954.652 2556.06C998.282 2572.67 1042.8 2586.96 1088.02 2598.84C1122.5 2608.02 1157.28 2615.75 1192.36 2622.03C1221.26 2627.24 1250.29 2631.33 1279.58 2634.43C1308.87 2637.53 1334.98 2639.77 1362.75 2641.26C1380.75 2642.12 1398.75 2643.12 1416.75 2642.87C1421.54 2642.79 1426.33 2643.08 1431.08 2643.74C1436.6 2644.17 1442.16 2644.17 1447.69 2643.74C1455.04 2643.74 1462.39 2643.12 1469.74 2642.99C1492.56 2642.99 1515.26 2640.88 1537.95 2639.02C1555.19 2637.53 1572.31 2635.8 1589.42 2633.81C1604.25 2632.2 1618.96 2629.97 1633.79 2627.74C1672.76 2621.78 1711.42 2614.01 1749.79 2604.42C1811.86 2589.28 1872.67 2569.58 1931.72 2545.52C1943 2540.93 1954.03 2536.09 1965.19 2531.25C1966.79 2530.56 1968.44 2529.98 1970.13 2529.52C1971.6 2529.14 1973.15 2529.22 1974.58 2529.73C1976.01 2530.24 1977.24 2531.16 1978.12 2532.37C1978.85 2533.08 1979.4 2533.94 1979.73 2534.9C1980.05 2535.86 1980.13 2536.88 1979.97 2537.87C1979.81 2538.86 1979.41 2539.81 1978.8 2540.62C1978.19 2541.43 1977.39 2542.09 1976.47 2542.54C1974.95 2543.41 1973.3 2544.03 1971.65 2544.77C1922.2 2566.71 1871.39 2585.6 1819.52 2601.32C1775.22 2614.58 1730.24 2625.55 1684.76 2634.19C1655.73 2639.77 1626.44 2644.48 1597.16 2648.2C1574.72 2650.93 1552.4 2653.28 1529.84 2654.9C1507.27 2656.51 1487.62 2657.13 1463.53 2658Z" fill="url(#paint7_linear_813_2)"/>
<path fill-rule="evenodd" clip-rule="evenodd" d="M1386.58 118.678L1416.24 117.934C1420.82 117.583 1425.41 117.791 1429.93 118.554C1431.16 118.681 1432.39 118.681 1433.61 118.554L1481.53 119.794C1503.08 120.414 1524.51 122.026 1545.93 123.887C1567.36 125.747 1586.25 127.731 1606.28 130.459C1633.92 134.056 1661.3 138.644 1688.69 143.977C1750.72 156.213 1811.77 172.791 1871.37 193.583C1894.32 201.52 1916.88 210.201 1939.32 219.254C1941.71 220.137 1944.04 221.172 1946.3 222.354C1947.09 222.754 1947.78 223.32 1948.33 224.011C1948.87 224.702 1949.25 225.502 1949.45 226.354C1949.64 227.206 1949.64 228.089 1949.45 228.941C1949.25 229.793 1948.87 230.592 1948.32 231.283C1947.43 232.801 1946.06 233.988 1944.41 234.661C1942.76 235.334 1940.92 235.454 1939.2 235.004C1936.97 234.403 1934.81 233.615 1932.73 232.647C1893.6 216.525 1853.66 202.346 1812.93 190.11C1767.11 176.385 1720.55 165.124 1673.47 156.378C1646.09 151.253 1618.58 147.119 1590.94 143.977C1573.19 141.745 1555.19 140.381 1537.31 138.52C1519.44 136.66 1501.06 135.792 1482.8 135.048C1464.54 134.304 1448.82 135.048 1432.09 133.56C1415.36 132.072 1400.14 133.56 1384.17 133.56C1365.02 134.304 1346.14 135.668 1326.61 136.908C1313.93 137.776 1301.26 139.016 1288.58 140.381C1275.9 141.745 1259.8 143.481 1245.6 145.341C1225.7 148.193 1206.05 151.418 1186.4 154.89C1155.21 160.595 1124.36 167.374 1093.85 175.229C1036.42 190.044 980.12 208.775 925.364 231.283C923.118 232.373 920.786 233.285 918.391 234.011C916.449 234.664 914.329 234.595 912.435 233.817C910.542 233.04 909.007 231.608 908.122 229.795C907.677 229.113 907.383 228.347 907.257 227.547C907.131 226.747 907.177 225.93 907.392 225.149C907.606 224.367 907.985 223.638 908.504 223.007C909.022 222.376 909.67 221.858 910.404 221.486C911.799 220.742 913.193 220.246 914.588 219.626C955.615 202.653 997.507 187.751 1040.1 174.981C1070.1 165.886 1100.4 157.949 1131 151.17C1166.24 143.233 1201.86 136.66 1237.61 131.576C1263.73 127.979 1289.85 124.879 1316.09 122.771C1339.54 120.786 1363.12 119.422 1386.58 118.678Z" fill="url(#paint8_linear_813_2)"/>
<path fill-rule="evenodd" clip-rule="evenodd" d="M1912.96 2304.69C1907.51 2304.69 1902.05 2304.69 1896.6 2304.69C1893.77 2304.8 1890.99 2303.98 1888.69 2302.36C1886.39 2300.74 1884.72 2298.42 1883.92 2295.76C1882.66 2292.66 1881.39 2289.68 1880.37 2286.58C1875.18 2271.45 1870.23 2256.32 1864.91 2241.31C1856.03 2216.51 1846.91 2190.59 1837.9 2165.29C1837.92 2165 1837.92 2164.72 1837.9 2164.43C1836.38 2160.58 1834.74 2159.09 1832.45 2159.47C1830.17 2159.84 1828.27 2162.44 1827.51 2165.17C1823.07 2179.93 1818.76 2194.56 1814.2 2209.32C1808.24 2229.04 1801.52 2248.76 1795.81 2268.6C1793.28 2277.03 1790.74 2285.46 1787.95 2293.4C1787.37 2295.4 1786.52 2297.32 1785.42 2299.11C1784.62 2300.54 1783.45 2301.74 1782.02 2302.59C1780.6 2303.44 1778.97 2303.9 1777.31 2303.94H1744.72C1742.91 2304.13 1741.08 2304.13 1739.27 2303.94C1737.79 2303.7 1736.44 2302.96 1735.47 2301.83C1734.06 2299.95 1733.09 2297.78 1732.63 2295.49C1732.17 2293.2 1732.23 2290.83 1732.81 2288.56C1741.68 2264.75 1750.81 2241.07 1759.68 2217.26C1764.25 2204.85 1768.56 2193.45 1772.36 2181.42C1782.12 2155.12 1791.76 2128.71 1801.65 2102.42C1805.32 2092.37 1806.84 2091.63 1817.49 2092C1828.14 2092.37 1834.99 2092 1843.74 2092C1845.26 2092 1846.65 2092 1848.17 2092C1850.15 2091.86 1852.13 2092.35 1853.8 2093.4C1855.47 2094.45 1856.74 2096.01 1857.43 2097.83C1859.08 2101.67 1860.85 2105.4 1862.5 2109.24C1865.67 2116.56 1868.84 2123.87 1871.88 2131.31L1898.88 2196.05L1930.83 2272.07C1932.15 2276 1933.89 2279.79 1936.03 2283.36C1939.96 2288.94 1937.3 2294.52 1936.92 2300.22C1936.92 2302.45 1934.76 2304.07 1931.85 2304.19C1928.93 2304.31 1923.99 2304.19 1920.06 2304.19L1912.96 2304.69Z" fill="url(#paint9_linear_813_2)"/>
<path fill-rule="evenodd" clip-rule="evenodd" d="M829.248 2304.68H812.133C809.686 2304.77 807.275 2304.09 805.262 2302.72C803.249 2301.36 801.745 2299.39 800.977 2297.12C800.394 2295.74 799.886 2294.33 799.456 2292.9C794.892 2279.51 790.454 2265.99 785.89 2252.59L771.945 2213.41L757.239 2170.62C756.478 2168.39 755.844 2166.03 755.084 2163.8C754.742 2162.66 754.045 2161.65 753.091 2160.92C752.136 2160.19 750.972 2159.76 749.759 2159.71C747.604 2159.71 745.702 2161.44 744.815 2164.3C742.913 2170.12 741.138 2176.7 739.363 2182.03C733.151 2202.12 726.686 2222.09 720.854 2242.18C716.417 2256.31 712.233 2270.45 708.176 2284.59L704.753 2295.5C704.035 2298.23 702.388 2300.64 700.083 2302.33C697.779 2304.02 694.955 2304.89 692.076 2304.8C680.539 2304.8 669.129 2304.8 657.719 2304.8C656.791 2304.87 655.859 2304.87 654.93 2304.8C653.895 2304.59 652.984 2304 652.392 2303.14C651.8 2302.28 651.574 2301.23 651.761 2300.22C651.761 2298.48 653.155 2296.5 651.761 2295.26C650.366 2294.02 649.352 2290.54 651.127 2287.69C651.87 2286.44 652.465 2285.11 652.902 2283.72C657.973 2269.83 662.917 2255.94 668.115 2242.05C676.356 2219.61 684.976 2197.16 693.47 2174.71L708.557 2131.06C712.233 2121.02 715.783 2110.97 719.46 2101.05C719.796 2099.51 720.452 2098.06 721.389 2096.78C722.326 2095.51 723.522 2094.43 724.902 2093.63C726.283 2092.83 727.819 2092.31 729.413 2092.11C731.007 2091.92 732.625 2092.05 734.166 2092.49C743.462 2093.73 752.887 2093.73 762.183 2092.49C763.649 2092.1 765.18 2092.01 766.684 2092.21C768.188 2092.42 769.634 2092.92 770.937 2093.68C772.239 2094.45 773.37 2095.46 774.262 2096.66C775.154 2097.86 775.789 2099.23 776.129 2100.68C780.566 2110.97 784.876 2121.39 788.806 2131.8L815.176 2193.81C820.501 2206.21 825.698 2219.48 831.15 2232.26C838.376 2249.74 845.729 2267.23 853.082 2284.71C853.843 2286.57 855.11 2288.31 855.998 2290.17C856.885 2292.03 855.998 2292.28 855.998 2292.65C854.914 2293.42 854.134 2294.53 853.788 2295.79C853.442 2297.06 853.551 2298.4 854.096 2299.6C854.241 2300.63 853.963 2301.68 853.323 2302.52C852.682 2303.35 851.73 2303.91 850.673 2304.06C848.861 2304.24 847.034 2304.24 845.222 2304.06L829.248 2304.68Z" fill="url(#paint10_linear_813_2)"/>
<path fill-rule="evenodd" clip-rule="evenodd" d="M2197.57 2308.16C2176.29 2307.95 2155.58 2301.37 2138.24 2289.31C2132.26 2285.52 2127.31 2280.37 2123.82 2274.3C2120.33 2268.23 2118.41 2261.42 2118.21 2254.46C2117.57 2250.1 2117.19 2245.71 2117.07 2241.31C2117.07 2237.1 2118.72 2235.24 2122.9 2234.99C2129.81 2234.37 2136.75 2234.12 2143.69 2234.24C2151.05 2234.24 2154.47 2237.34 2154.98 2244.41C2155.42 2248.2 2156.8 2251.82 2159.02 2254.95C2161.23 2258.09 2164.19 2260.65 2167.65 2262.39C2172.53 2265.44 2178.02 2267.43 2183.75 2268.22C2194.7 2270.48 2206.04 2270.18 2216.84 2267.35C2221.2 2266.06 2225.22 2263.86 2228.63 2260.91C2229.66 2260.29 2230.57 2259.49 2231.3 2258.55C2232.69 2257.09 2233.78 2255.37 2234.48 2253.49C2235.19 2251.61 2235.5 2249.61 2235.41 2247.61C2235.31 2245.61 2234.81 2243.65 2233.93 2241.85C2233.05 2240.04 2231.81 2238.43 2230.28 2237.1C2226.52 2233.86 2222.24 2231.26 2217.6 2229.41C2208.78 2225.63 2199.71 2222.4 2190.47 2219.73C2182.99 2217.38 2175.51 2215.02 2168.16 2212.29C2156.8 2208.2 2146.38 2201.97 2137.48 2193.94C2133.23 2190.38 2129.75 2186.02 2127.24 2181.12C2124.74 2176.22 2123.26 2170.88 2122.9 2165.42C2122.01 2157.83 2122.01 2150.18 2122.9 2142.6C2123.92 2134.83 2126.81 2127.41 2131.33 2120.94C2135.85 2114.47 2141.86 2109.15 2148.89 2105.39C2157.58 2100.61 2167.14 2097.54 2177.04 2096.34C2188.91 2094.19 2201.07 2093.89 2213.04 2095.47C2231.43 2097.73 2248.32 2106.56 2260.45 2120.27C2267.24 2127.96 2271.64 2137.38 2273.13 2147.43C2273.33 2151.87 2272.82 2156.3 2271.61 2160.58C2271.41 2161.47 2270.98 2162.29 2270.36 2162.96C2269.74 2163.64 2268.94 2164.14 2268.06 2164.42C2266.43 2165.18 2264.67 2165.64 2262.86 2165.79C2258.05 2166.04 2253.23 2166.04 2248.41 2165.79C2245.3 2165.81 2242.28 2164.71 2239.94 2162.7C2237.61 2160.68 2236.11 2157.9 2235.73 2154.87C2235.2 2152.55 2234.11 2150.38 2232.56 2148.55C2225.93 2141 2217.03 2135.68 2207.14 2133.34C2197.24 2131 2186.84 2131.77 2177.42 2135.53C2172.65 2137.47 2168.34 2140.34 2164.74 2143.96C2162.51 2145.82 2161.06 2148.42 2160.69 2151.27C2160.31 2154.11 2161.03 2156.99 2162.71 2159.34C2164.53 2162.39 2167.1 2164.95 2170.19 2166.78C2178.96 2172.13 2188.43 2176.3 2198.33 2179.18C2212.98 2182.84 2227.17 2188.04 2240.68 2194.68C2245.78 2197.23 2250.58 2200.3 2255 2203.86C2262.23 2209.83 2267.72 2217.56 2270.93 2226.27C2274.13 2234.98 2274.94 2244.36 2273.26 2253.47C2272.76 2259.64 2271.43 2265.73 2269.33 2271.57C2266.5 2278.92 2261.97 2285.53 2256.1 2290.89C2250.23 2296.25 2243.17 2300.2 2235.48 2302.45C2223.22 2306.24 2210.43 2308.16 2197.57 2308.16Z" fill="url(#paint11_linear_813_2)"/>
<path fill-rule="evenodd" clip-rule="evenodd" d="M1123.77 2219.48V2285.83C1123.77 2289.67 1123.77 2293.52 1123.77 2297.36C1123.64 2299.15 1122.89 2300.83 1121.65 2302.14C1120.4 2303.45 1118.73 2304.3 1116.92 2304.55H1088.91C1084.47 2304.55 1082.95 2303.19 1082.06 2298.97C1081.11 2295.28 1080.6 2291.49 1080.54 2287.69C1080.54 2262.27 1080.54 2236.84 1080.54 2211.54C1079.65 2188.85 1079.78 2166.15 1079.4 2143.46C1079.4 2142.59 1079.4 2141.6 1079.4 2140.73C1079.34 2140.14 1079.06 2139.59 1078.62 2139.18C1078.18 2138.77 1077.6 2138.53 1076.99 2138.5C1074.58 2138.37 1072.17 2138.37 1069.76 2138.5H1019.56H1009.54C1008.01 2138.45 1006.54 2137.89 1005.37 2136.93C1004.2 2135.96 1003.39 2134.63 1003.08 2133.17C1002.29 2130.33 1001.82 2127.42 1001.68 2124.48C1001.68 2115.68 1001.68 2106.75 1001.68 2097.95C1001.68 2093.11 1003.08 2091.37 1008.02 2091.25C1012.97 2091.12 1020.7 2091.25 1027.93 2091.25C1030.34 2091.25 1032.74 2091.25 1035.03 2091.25C1059.49 2091.25 1083.96 2092.12 1108.43 2091.25C1132.9 2090.38 1155.97 2091.25 1179.8 2090.38H1187.03C1190.96 2090.38 1192.48 2092.24 1192.74 2095.96V2096.83C1192.74 2106.25 1192.74 2115.68 1192.74 2125.1C1192.74 2134.53 1189.44 2137.51 1180.06 2137.51H1135.69C1123.01 2137.51 1124.4 2137.51 1124.4 2148.92L1123.77 2219.48Z" fill="url(#paint12_linear_813_2)"/>
<path fill-rule="evenodd" clip-rule="evenodd" d="M1461.25 2304.68H1407.75C1405.05 2304.87 1402.34 2304.87 1399.64 2304.68C1397.83 2304.49 1396.17 2303.65 1394.97 2302.32C1393.77 2300.99 1393.13 2299.26 1393.17 2297.49C1393.17 2294.76 1393.17 2292.16 1393.17 2289.43C1393.17 2234.03 1392.83 2178.6 1392.16 2123.12V2100.93C1391.9 2098.91 1391.9 2096.87 1392.16 2094.85C1392.33 2093.66 1392.91 2092.57 1393.82 2091.76C1394.72 2090.94 1395.88 2090.46 1397.1 2090.38C1405.21 2090.38 1413.45 2089.64 1421.57 2090.38C1422.88 2090.32 1424.18 2090.54 1425.4 2091.02C1426.61 2091.5 1427.71 2092.23 1428.61 2093.16C1429.51 2094.09 1430.2 2095.19 1430.63 2096.41C1431.05 2097.62 1431.2 2098.91 1431.08 2100.18C1431.58 2104.55 1431.58 2108.96 1431.08 2113.33C1430.34 2119.5 1430.04 2125.72 1430.19 2131.93C1430.19 2144.33 1430.19 2156.73 1430.19 2170C1430.19 2173.47 1430.19 2177.07 1430.19 2180.54C1430.19 2184.02 1430.19 2184.14 1430.19 2185.88C1428.16 2206.71 1430.19 2227.67 1429.17 2248.63C1429.11 2249.2 1429.11 2249.79 1429.17 2250.36C1429.17 2258.42 1431.46 2260.28 1439.57 2260.41H1489.39C1496.63 2260.66 1503.87 2260.41 1511.07 2259.66C1515.9 2259.17 1520.78 2259.42 1525.52 2260.41C1526.75 2260.56 1527.86 2261.16 1528.66 2262.07C1529.46 2262.99 1529.88 2264.17 1529.84 2265.37C1529.84 2270.08 1529.84 2274.79 1529.84 2279.51C1530.15 2284.79 1530.15 2290.09 1529.84 2295.38C1528.31 2303.32 1526.79 2304.93 1518.55 2304.93H1460.74L1461.25 2304.68Z" fill="url(#paint13_linear_813_2)"/>
<path d="M1395.5 556.899C1363.5 586.899 1326.5 564.899 1343 540.899C1493.5 403.399 1695.5 355.899 1840 403.399C2029 605.399 1645.5 1101.4 1324.5 1169.9C1281.5 1121.9 1238.5 1047.9 1232 1007.4C1559 950.399 1806.5 420.399 1597 446.899C1557 450.399 1448.9 509.899 1395.5 556.899Z" fill="url(#paint14_linear_813_2)"/>
<path d="M1994.5 491.399C2245 724.899 2048.5 1078.4 1559 1261.4L1574.03 1281.9C1893.81 1201.71 2014.21 1113.8 2155 902.899C2072 1210.9 1792 1320.4 1574.03 1281.9L2063.5 1949.4L1232 1649.9L1133.5 1876.9C1203.45 1870.73 1245.03 1866.49 1324.5 1856.9C1086.5 1916.4 1053 1990.9 886 1996.4L1155 1493.4L1809.5 1749.4L1397.5 1274.9L1313.5 1390.9L1441 1493.4C1459.5 1503.9 1478.27 1503.6 1503.5 1493.4C1479 1517.9 1453.5 1531.9 1427.5 1523.9L1175.5 1419.4L1289.5 1210.9C1586 1175.4 2077 822.399 1994.5 491.399Z" fill="url(#paint15_linear_813_2)"/>
<path d="M1034.5 1066.4C1080.5 1061.4 1128.52 1109.17 1181 1169.9C1145.46 1093.67 1113 1049.9 1037.5 1037.4C854 1028.4 868.5 1276.29 998.5 1352.9C1054.5 1385.9 1092.5 1359.9 1113 1302.4C1005.5 1425.9 811 1125.4 1034.5 1066.4Z" fill="url(#paint16_linear_813_2)"/>
<defs>
<linearGradient id="paint0_linear_813_2" x1="1437.58" y1="0" x2="1437.58" y2="2798.51" gradientUnits="userSpaceOnUse">
<stop/>
<stop offset="1"/>
</linearGradient>
<linearGradient id="paint1_linear_813_2" x1="510.915" y1="6.14355" x2="510.915" y2="786.121" gradientUnits="userSpaceOnUse">
<stop/>
<stop offset="1"/>
</linearGradient>
<linearGradient id="paint2_linear_813_2" x1="2476.3" y1="68.2051" x2="2476.3" y2="894.625" gradientUnits="userSpaceOnUse">
<stop/>
<stop offset="1"/>
</linearGradient>
<linearGradient id="paint3_linear_813_2" x1="448.858" y1="1844.16" x2="448.858" y2="2777.1" gradientUnits="userSpaceOnUse">
<stop/>
<stop offset="1"/>
</linearGradient>
<linearGradient id="paint4_linear_813_2" x1="2414.5" y1="1980.64" x2="2414.5" y2="2789.72" gradientUnits="userSpaceOnUse">
<stop/>
<stop offset="1"/>
</linearGradient>
<linearGradient id="paint5_linear_813_2" x1="2649.23" y1="784.461" x2="2649.23" y2="1877.52" gradientUnits="userSpaceOnUse">
<stop/>
<stop offset="1"/>
</linearGradient>
<linearGradient id="paint6_linear_813_2" x1="207.318" y1="783.383" x2="207.318" y2="1877.67" gradientUnits="userSpaceOnUse">
<stop/>
<stop offset="1"/>
</linearGradient>
<linearGradient id="paint7_linear_813_2" x1="1428.39" y1="2527.67" x2="1428.39" y2="2658.63" gradientUnits="userSpaceOnUse">
<stop/>
<stop offset="1"/>
</linearGradient>
<linearGradient id="paint8_linear_813_2" x1="1428.39" y1="117.769" x2="1428.39" y2="235.271" gradientUnits="userSpaceOnUse">
<stop/>
<stop offset="1"/>
</linearGradient>
<linearGradient id="paint9_linear_813_2" x1="1835.24" y1="2091.93" x2="1835.24" y2="2304.7" gradientUnits="userSpaceOnUse">
<stop/>
<stop offset="1"/>
</linearGradient>
<linearGradient id="paint10_linear_813_2" x1="753.286" y1="2092.03" x2="753.286" y2="2304.86" gradientUnits="userSpaceOnUse">
<stop/>
<stop offset="1"/>
</linearGradient>
<linearGradient id="paint11_linear_813_2" x1="2195.59" y1="2094.47" x2="2195.59" y2="2308.16" gradientUnits="userSpaceOnUse">
<stop/>
<stop offset="1"/>
</linearGradient>
<linearGradient id="paint12_linear_813_2" x1="1097.21" y1="2090.38" x2="1097.21" y2="2304.55" gradientUnits="userSpaceOnUse">
<stop/>
<stop offset="1"/>
</linearGradient>
<linearGradient id="paint13_linear_813_2" x1="1461.02" y1="2090.05" x2="1461.02" y2="2304.93" gradientUnits="userSpaceOnUse">
<stop/>
<stop offset="1"/>
</linearGradient>
<linearGradient id="paint14_linear_813_2" x1="1520.5" y1="385.508" x2="1520.5" y2="1996.4" gradientUnits="userSpaceOnUse">
<stop/>
<stop offset="1"/>
</linearGradient>
<linearGradient id="paint15_linear_813_2" x1="1520.5" y1="385.508" x2="1520.5" y2="1996.4" gradientUnits="userSpaceOnUse">
<stop/>
<stop offset="1"/>
</linearGradient>
<linearGradient id="paint16_linear_813_2" x1="1520.5" y1="385.508" x2="1520.5" y2="1996.4" gradientUnits="userSpaceOnUse">
<stop/>
<stop offset="1"/>
</linearGradient>
</defs>
</svg>
