<svg width="4500" height="4500" viewBox="0 0 4500 4500" fill="none" xmlns="http://www.w3.org/2000/svg">
<rect width="4500" height="4500" rx="280" fill="#FBFBFB"/>
<g filter="url(#filter0_i_813_42)">
<path fill-rule="evenodd" clip-rule="evenodd" d="M3686.78 2309.9C3686.51 2333.35 3685.03 2356.78 3682.35 2380.09C3680.7 2395.96 3679.18 2411.96 3677.15 2427.84C3674.36 2449.17 3671.06 2470.25 3667.26 2491.45C3661.18 2524.94 3654.58 2558.17 3645.58 2590.67C3631.94 2644 3615 2696.47 3594.87 2747.79C3575.47 2797.05 3553.25 2845.21 3528.31 2892.02C3510.57 2925.09 3491.51 2957.67 3471.14 2989.74C3447.39 3026.54 3422.03 3062.25 3395.07 3096.89C3373.27 3124.67 3350.45 3151.83 3326.61 3178C3306.2 3200.32 3285.28 3222.15 3263.22 3243.11C3227.35 3277.6 3189.65 3310.22 3150.27 3340.83C3110.69 3371.81 3069.52 3400.79 3026.91 3427.64C2919.55 3494.77 2803.6 3547.77 2682.08 3585.26C2629.95 3601.26 2576.91 3614.27 2523.23 3624.2C2499.9 3628.54 2476.45 3632.39 2452.87 3635.36C2435.5 3637.6 2418.13 3639.7 2400.76 3641.32C2383.4 3642.93 2364 3644.66 2345.62 3645.78C2335.73 3646.44 2325.84 3646.94 2315.95 3647.27C2314.3 3647.27 2312.4 3647.27 2311.13 3648.51H2197.03C2195.89 3647.14 2194.37 3647.39 2192.85 3647.27C2179.41 3647.27 2166.1 3646.28 2152.66 3645.28C2139.22 3644.29 2121.86 3642.8 2106.52 3641.44C2096.25 3640.45 2085.85 3639.46 2075.58 3638.09C2059.23 3636.11 2043 3634.12 2026.65 3631.64C2005.47 3628.29 1984.3 3624.57 1963.26 3620.48C1926.49 3613.16 1890.11 3604.61 1854.1 3594.56C1753.46 3566.66 1656.3 3527.89 1564.42 3478.98C1530.61 3461.04 1497.61 3441.78 1465.41 3421.19C1428.73 3397.71 1393.23 3372.7 1358.91 3346.16C1333.56 3326.32 1308.2 3305.49 1283.61 3284.15C1259.01 3262.82 1238.86 3243.35 1217.68 3222.15C1183.88 3187.92 1151.89 3152.24 1121.72 3115.12C1095.35 3082.55 1070.54 3048.9 1047.3 3014.18C1024.05 2979.45 1002.93 2944.64 983.909 2909.76C932.374 2815.7 892.048 2716.17 863.725 2613.11C854.005 2577.64 845.554 2541.85 838.37 2505.72C833.932 2482.65 830.256 2459.58 826.96 2436.39C824.297 2417.05 822.142 2397.7 820.114 2378.35C819.099 2370.04 818.719 2361.61 818.085 2353.55C817.198 2342.14 816.31 2330.86 815.677 2319.57C815.043 2308.29 815.677 2299.85 814.662 2289.93C814.662 2286.46 814.662 2283.11 813.902 2279.64C813.884 2279.02 813.698 2278.42 813.364 2277.9C813.029 2277.37 812.559 2276.95 812 2276.66V2220.48C812.666 2220.31 813.236 2219.89 813.59 2219.31C813.945 2218.73 814.057 2218.04 813.902 2217.38C813.902 2214.03 814.662 2210.56 814.789 2207.09C815.55 2190.84 815.93 2174.6 817.071 2158.35C818.466 2139.13 819.86 2120.03 822.396 2100.93C824.171 2087.66 825.438 2074.52 827.34 2061.25C829.749 2044.26 832.284 2027.14 835.327 2010.15C839.891 1983.62 845.469 1957.32 851.681 1931.16C869.368 1857.45 893.067 1785.25 922.549 1715.25C940.084 1673.46 959.759 1632.57 981.5 1592.72C1012.64 1535.62 1047.89 1480.75 1086.98 1428.53C1109.97 1397.77 1134.14 1367.97 1159.49 1339.11C1176.4 1320.01 1193.72 1301.37 1211.47 1283.18C1223.39 1270.78 1235.43 1259.12 1247.73 1247.34C1279.81 1216.96 1313.27 1187.82 1348.14 1160.53C1383 1133.25 1419.13 1106.83 1456.28 1082.65C1486.62 1062.97 1517.68 1044.41 1549.46 1026.97C1575.83 1012.58 1602.58 999.189 1629.71 986.54C1671.04 967.194 1713.3 949.914 1756.49 934.702C1808.76 916.108 1862.1 900.497 1916.22 887.948C1948.26 880.673 1980.25 874.348 2012.19 868.974C2034.68 865.336 2057.2 862.153 2079.77 859.425C2091.56 857.937 2103.35 856.945 2115.26 855.829C2130.6 854.465 2145.94 852.976 2161.41 851.984C2176.88 850.992 2192.47 850.62 2207.68 850H2213.64C2240.01 850 2266.38 850 2292.75 850H2298.84C2316.2 850 2333.7 851.364 2351.07 852.604C2360.2 853.348 2369.32 853.72 2378.32 854.589C2391 855.705 2403.68 856.945 2416.36 858.309C2425.87 859.301 2435.5 860.417 2445.01 861.781C2463.01 864.386 2481.01 866.742 2499.02 869.718C2532.23 875.299 2565.07 882.12 2597.77 890.057C2644.43 901.301 2690.41 914.86 2735.71 930.733C2801 953.714 2864.55 981.19 2925.87 1012.95C2984.67 1043.41 3041.23 1077.85 3095.12 1116.01C3125.97 1137.75 3155.8 1160.61 3184.62 1184.59C3204.91 1201.46 3224.43 1218.94 3243.83 1236.8C3263.22 1254.66 3283.76 1275.25 3302.91 1295.34C3343.29 1337.56 3380.93 1382.21 3415.61 1429.02C3439.95 1462.09 3462.86 1495.83 3484.32 1530.22C3511.77 1574.82 3536.7 1620.85 3558.99 1668.12C3583.64 1720.82 3604.81 1775 3622.38 1830.33C3635.06 1869.89 3645.84 1909.83 3654.96 1950.38C3661.56 1979.77 3667.01 2009.29 3671.57 2039.05C3674.87 2060.75 3677.78 2082.46 3679.94 2104.28C3681.71 2121.77 3683.24 2139.13 3684.5 2156.62C3685.39 2167.65 3685.64 2178.81 3685.9 2189.85C3685.9 2205.11 3685.9 2220.24 3685.9 2235.49C3685.85 2236.1 3685.93 2236.72 3686.15 2237.3C3686.37 2237.88 3686.72 2238.4 3687.17 2238.84V2259.55C3686.64 2260.36 3686.22 2261.24 3685.9 2262.15C3685.9 2263.76 3685.9 2265.5 3685.9 2267.24L3686.78 2309.9ZM2155.7 3601.51C2155.98 3601.75 2156.34 3601.89 2156.72 3601.89C2157.09 3601.89 2157.45 3601.75 2157.73 3601.51C2167.49 3601.51 2177.38 3602.75 2187.27 3603.12C2204.77 3603.74 2222.14 3604.36 2239.63 3604.48C2254.34 3604.48 2269.04 3604.48 2283.75 3604.48C2313.03 3603.62 2342.45 3602.25 2371.73 3599.9C2392.4 3598.16 2412.93 3595.93 2433.6 3593.32C2462 3589.73 2490.14 3585.26 2518.29 3579.8C2623.02 3559.79 2725.09 3528.21 2822.55 3485.68C2871.97 3464.04 2920.05 3439.61 2966.57 3412.51C3011.14 3386.58 3054.19 3358.22 3095.5 3327.56C3135.6 3297.83 3173.99 3265.95 3210.49 3232.07C3236.6 3207.93 3261.7 3182.79 3285.79 3156.67C3309.88 3130.54 3332.28 3104.46 3352.98 3078.41C3410.46 3006.24 3460.28 2928.54 3501.69 2846.51C3527.41 2795.34 3549.73 2742.61 3568.5 2688.64C3583.45 2645.44 3596.14 2601.52 3606.54 2557.06C3612.11 2533.5 3617.31 2509.93 3621.37 2486C3624.28 2468.76 3627.33 2451.52 3629.86 2434.16C3631.76 2421.76 3633.29 2408.24 3634.68 2395.34C3636.07 2382.45 3636.96 2370.54 3638.23 2358.14C3640.26 2339.17 3641.15 2320.19 3642.03 2301.22C3643.05 2276.41 3643.05 2251.61 3642.03 2226.81C3642.03 2214.41 3642.03 2201.01 3641.27 2188.24C3640.13 2170.01 3639.5 2151.78 3637.47 2133.67C3636.07 2121.27 3635.31 2108.13 3633.79 2095.35C3631.26 2075.26 3628.59 2055.3 3625.3 2035.33C3620.1 2003.09 3613.76 1971.21 3606.03 1939.47C3541.12 1669.58 3392.94 1425.74 3181.58 1241.02C3096.24 1166.4 3001.89 1102.26 2900.64 1050.04C2860.86 1029.37 2820.03 1010.7 2778.3 994.105C2705.69 964.953 2630.66 941.927 2554.04 925.277C2528.68 919.655 2503.07 914.818 2477.21 910.767C2462.76 908.411 2448.3 906.427 2433.73 904.566C2419.15 902.706 2403.05 900.97 2387.71 899.606C2372.37 898.242 2353.86 896.877 2337 895.513C2316.96 893.777 2296.93 893.653 2277.03 893.033C2248.63 892.165 2220.23 893.033 2191.96 894.149H2180.55C2162.55 895.389 2144.68 896.505 2126.8 897.994C2108.92 899.482 2092.95 900.97 2076.09 903.078C2057.07 905.434 2038.06 908.411 2019.04 911.263C1989.25 915.728 1959.83 921.68 1930.3 928.377C1816.55 954.258 1706.7 994.399 1603.47 1047.8C1548.59 1076.06 1495.65 1107.79 1445 1142.8C1405.43 1170.19 1367.34 1199.58 1330.9 1230.85C1304.36 1253.5 1279 1277.11 1254.83 1301.66C1227.62 1329.19 1201.58 1357.47 1176.74 1386.49C1136.95 1433.59 1100.53 1483.32 1067.71 1535.3C993.235 1652.98 937.653 1781.13 902.899 1915.28C895.546 1943.81 889.08 1972.5 883.502 2001.35C880.079 2019.95 876.656 2038.55 874.121 2057.53C871.585 2076.5 869.303 2092.62 867.275 2110.36C865.753 2124 864.993 2137.89 863.725 2151.53C861.57 2173.98 860.809 2196.42 860.048 2218.75C859.288 2241.07 860.048 2266.62 860.048 2290.55C860.048 2314.49 862.584 2340.16 864.739 2365.95C866.387 2386.54 868.796 2407.12 871.585 2427.96C875.135 2454.37 879.445 2480.54 884.263 2506.71C894.672 2558.33 908.176 2609.3 924.704 2659.37C949.742 2736.83 982.082 2811.85 1021.31 2883.46C1039.14 2915.96 1058.2 2947.66 1078.48 2978.58C1125.99 3050.71 1180.28 3118.34 1240.63 3180.6C1261.51 3202.18 1283.1 3222.85 1305.41 3242.61C1339.22 3273.37 1374.68 3302.3 1411.78 3329.42C1479.63 3379.64 1552.13 3423.57 1628.31 3460.63C1665.16 3478.65 1702.86 3495.19 1741.4 3510.23C1797.55 3531.75 1855.06 3549.73 1913.56 3564.06C1950.66 3573.07 1988.11 3580.63 2025.89 3586.75C2049.34 3590.47 2072.92 3593.82 2096.5 3596.3C2116.4 3598.41 2135.67 3599.9 2155.7 3601.51Z" fill="url(#paint0_linear_813_42)"/>
<path fill-rule="evenodd" clip-rule="evenodd" d="M1769.57 862.767C1769.7 864.255 1769.35 865.747 1768.55 867.021C1767.75 868.294 1766.55 869.281 1765.13 869.836L1761.45 871.448C1725.58 883.849 1690.08 896.251 1655.21 911.257C1616.17 927.626 1577.67 945.485 1539.72 964.831C1492.51 989.673 1446.68 1016.95 1402.42 1046.56C1361.52 1074 1322 1103.27 1283.89 1134.36C1237.85 1172.12 1194.12 1212.5 1152.93 1255.27C1122.75 1286.69 1094.06 1319.26 1066.84 1353C1041.49 1384.66 1017.32 1417.24 994.329 1450.72C967.959 1489.58 943.534 1529.63 921.052 1570.89C910.91 1590.24 900.641 1609.71 891.133 1629.67C891.133 1630.54 890.245 1631.53 889.738 1632.28C889.4 1633.08 888.894 1633.81 888.251 1634.41C887.608 1635.01 886.843 1635.47 886.007 1635.76C885.17 1636.05 884.28 1636.17 883.394 1636.1C882.507 1636.04 881.646 1635.79 880.864 1635.38C879.134 1634.61 877.744 1633.26 876.952 1631.58C876.16 1629.89 876.018 1627.98 876.553 1626.2C876.553 1624.84 877.821 1623.47 878.455 1622.11C906.373 1564.57 938.136 1508.89 973.537 1455.43C1002.04 1412.59 1032.76 1371.19 1065.58 1331.42C1085.23 1307.61 1105.77 1284.42 1126.94 1261.85C1148.11 1239.27 1171.94 1215.09 1195.65 1192.89C1233.44 1157.47 1273.05 1123.94 1314.31 1092.44C1349.47 1065.65 1385.73 1040.4 1423.09 1016.67C1455.88 995.834 1489.69 976.24 1524.51 957.886C1566.22 935.191 1609.32 915.225 1653.69 896.251C1686.99 882.361 1720.8 869.629 1755.11 858.054C1757.18 857.323 1759.3 856.743 1761.45 856.318C1762.44 856.09 1763.46 856.085 1764.44 856.305C1765.43 856.525 1766.35 856.964 1767.13 857.587C1767.92 858.211 1768.55 859.002 1768.97 859.9C1769.39 860.798 1769.59 861.779 1769.57 862.767Z" fill="url(#paint1_linear_813_42)"/>
<path fill-rule="evenodd" clip-rule="evenodd" d="M2902.44 918.205C2904.22 918.233 2905.96 918.702 2907.51 919.569L2922.59 926.638C2991.08 959.251 3056.94 996.894 3119.6 1039.24C3156.88 1064.05 3192.97 1090.75 3227.87 1119.36C3250.61 1137.79 3272.79 1156.89 3294.43 1176.65C3317.5 1197.49 3339.56 1219.19 3361.24 1241.26C3365.64 1245.35 3369.59 1249.89 3373.03 1254.78C3375.4 1257.7 3378.07 1260.36 3381.02 1262.72C3404.34 1287.52 3426.66 1312.32 3448.21 1339.11C3480.9 1378.89 3511.49 1420.29 3539.87 1463.12C3562.1 1496.69 3582.89 1531.13 3602.24 1566.43C3631.58 1619.93 3657.53 1675.13 3679.96 1731.74C3679.96 1732.98 3680.97 1734.1 3681.35 1735.21C3682.11 1736.66 3682.26 1738.35 3681.76 1739.9C3681.26 1741.46 3680.16 1742.76 3678.69 1743.52C3677.05 1744.52 3675.07 1744.86 3673.18 1744.46C3671.29 1744.07 3669.63 1742.98 3668.55 1741.41C3667.46 1739.78 3666.57 1738.03 3665.88 1736.2C3660.81 1723.8 3656 1711.4 3650.92 1699.74C3631.02 1653.12 3608.55 1607.58 3583.61 1563.33C3559.94 1520.83 3534.12 1479.49 3506.15 1439.31C3480.79 1403.6 3454.29 1369 3426.66 1335.51C3407.89 1313.19 3388.62 1291.49 3368.47 1270.03C3364.28 1265.57 3360.48 1260.73 3355.79 1256.39C3351.1 1252.05 3347.17 1247.34 3343.11 1242.87L3329.29 1229.11L3315.85 1216.09L3302.29 1203.07C3271.1 1174.17 3238.9 1146.27 3205.69 1119.73C3169.85 1091.37 3132.79 1064.67 3094.5 1039.62C3062.22 1018.45 3029.04 998.525 2994.98 979.84C2969.63 966.075 2944.27 953.053 2918.92 940.776L2902.44 933.211L2898.25 931.227C2896.86 930.601 2895.74 929.503 2895.11 928.135C2894.48 926.766 2894.38 925.221 2894.83 923.786C2895.41 922.237 2896.44 920.886 2897.79 919.896C2899.14 918.906 2900.75 918.319 2902.44 918.205Z" fill="url(#paint2_linear_813_42)"/>
<path fill-rule="evenodd" clip-rule="evenodd" d="M1704.42 3620.48C1704.45 3621.59 1704.19 3622.69 1703.65 3623.67C1703.12 3624.65 1702.34 3625.48 1701.38 3626.08C1700.43 3626.68 1699.33 3627.03 1698.2 3627.09C1697.06 3627.15 1695.93 3626.93 1694.91 3626.43C1686.16 3622.46 1677.16 3619.24 1668.29 3615.52C1631.52 3600.14 1595.52 3583.15 1560.15 3565.05C1499.65 3533.91 1441.37 3498.82 1385.7 3460.01C1351.47 3436.2 1318.34 3411.02 1286.31 3384.48C1270.46 3371.34 1255 3357.82 1239.66 3344.3C1211.39 3319.5 1184.51 3292.59 1158.14 3265.68C1156.27 3263.99 1154.68 3262.02 1153.45 3259.85C1153.05 3258.97 1152.49 3258.17 1151.8 3257.49C1137.35 3243.85 1124.54 3228.97 1111.49 3214.21C1086.13 3185.19 1061.75 3155.22 1038.34 3124.3C1008.92 3085.03 981.498 3044.48 956.058 3002.64C936.788 2971.06 918.786 2938.77 902.052 2905.79C876.185 2854.92 853.369 2802.62 833.719 2749.16C828.775 2735.51 824.084 2721.75 819.267 2707.86C818.633 2706.25 818.252 2704.63 817.618 2703.02C817.344 2702.19 817.242 2701.32 817.317 2700.45C817.392 2699.58 817.644 2698.73 818.057 2697.96C818.47 2697.18 819.036 2696.5 819.723 2695.94C820.409 2695.38 821.202 2694.97 822.056 2694.71C823.693 2694.02 825.538 2693.97 827.212 2694.57C828.887 2695.17 830.262 2696.38 831.057 2697.94C832.12 2699.9 832.93 2701.98 833.466 2704.14C843.608 2734.15 854.637 2763.83 866.554 2793.18C906.06 2889.5 955.954 2981.41 1015.39 3067.38C1043.28 3107.8 1073.12 3146.75 1104.89 3184.2C1121.63 3203.92 1138.87 3223.39 1156.75 3242.24L1157.76 3243.35C1176.52 3263.94 1197.69 3285.27 1218.61 3305.36C1239.53 3325.45 1259.82 3343.43 1281.24 3361.54C1315.64 3390.81 1351.31 3418.42 1388.24 3444.38C1428.64 3472.9 1470.43 3499.4 1513.62 3523.87C1561.99 3551.46 1611.94 3576.3 1663.22 3598.28C1673.87 3602.87 1684.64 3607.21 1695.29 3611.68C1697.23 3612.37 1699.1 3613.24 1700.87 3614.28C1701.96 3614.92 1702.86 3615.83 1703.48 3616.92C1704.11 3618.01 1704.43 3619.23 1704.42 3620.48Z" fill="url(#paint3_linear_813_42)"/>
<path fill-rule="evenodd" clip-rule="evenodd" d="M2801.03 3639.7C2799.6 3639.83 2798.18 3639.45 2797.01 3638.63C2795.85 3637.8 2795.02 3636.6 2794.69 3635.24C2794.15 3633.83 2794.07 3632.29 2794.48 3630.84C2794.9 3629.39 2795.77 3628.11 2796.98 3627.17C2799.08 3625.85 2801.34 3624.77 2803.69 3623.95C2813.33 3620.23 2823.09 3616.63 2832.73 3612.79C2883.6 3592.7 2933.29 3569.84 2981.56 3544.33C3027.12 3520.01 3071.38 3493.44 3114.17 3464.72C3154.57 3437.6 3193.57 3408.66 3231.18 3377.91C3275.32 3341.62 3317.31 3302.9 3356.95 3261.95C3383.32 3234.79 3408.55 3206.39 3433.01 3177.25C3509.64 3085.2 3574.49 2984.33 3626.09 2876.89C3631.8 2864.49 3637.25 2852.08 3642.83 2840.43C3643.87 2837.91 3645.1 2835.46 3646.5 2833.11C3647.26 2831.95 3648.45 2831.12 3649.82 2830.79C3651.19 2830.47 3652.64 2830.68 3653.86 2831.37C3655.83 2832.24 3657.38 2833.83 3658.19 2835.79C3658.99 2837.76 3658.98 2839.95 3658.17 2841.92C3655.25 2847.87 3652.84 2854.32 3650.05 2860.15C3636.79 2889.25 3622.59 2917.89 3607.46 2946.09C3588.82 2980.94 3568.54 3014.79 3546.99 3048.03C3517.97 3092.63 3486.48 3135.64 3452.66 3176.88C3430.6 3203.91 3407.66 3230.2 3383.57 3255.63C3364.05 3276.34 3344.02 3296.68 3323.35 3316.27C3299.64 3338.47 3275.3 3360.17 3250.33 3381.01C3200.87 3422.27 3148.79 3460.41 3094.39 3495.22C3060.42 3516.93 3025.68 3537.14 2990.18 3556.24C2954.69 3575.34 2920.2 3591.83 2884.07 3607.7C2858.72 3618.7 2833.36 3629.03 2808 3638.71C2805.77 3639.47 2803.4 3639.8 2801.03 3639.7Z" fill="url(#paint4_linear_813_42)"/>
<path fill-rule="evenodd" clip-rule="evenodd" d="M3526.58 2334.82C3527.72 2312.38 3528.98 2289.93 3529.62 2267.49C3529.62 2253.72 3530.25 2239.83 3529.62 2226.06C3529.62 2207.09 3528.98 2188.12 3527.72 2169.14C3526.07 2142.6 3523.79 2116.06 3520.49 2089.52C3514.49 2041.56 3505.81 1993.95 3494.5 1946.91C3476.45 1872.2 3451.33 1799.29 3419.45 1729.14C3407.41 1702.48 3394.09 1676.18 3380.4 1650.51C3379.19 1648.63 3378.17 1646.64 3377.36 1644.56C3376.67 1642.83 3376.67 1640.9 3377.38 1639.17C3378.09 1637.45 3379.44 1636.05 3381.16 1635.26C3382.73 1634.45 3384.54 1634.25 3386.26 1634.68C3387.97 1635.12 3389.45 1636.17 3390.42 1637.62C3391.55 1639.24 3392.57 1640.94 3393.46 1642.7C3422.96 1696.27 3448.39 1751.9 3469.53 1809.13C3489 1862.57 3504.84 1917.22 3516.94 1972.7C3523.96 2005.36 3529.74 2038.14 3534.31 2071.05C3537.22 2091.88 3539.51 2112.71 3541.03 2133.05C3542.55 2153.39 3543.44 2171.5 3544.45 2190.72C3545.85 2216.39 3545.85 2242.06 3545.21 2267.61C3544.58 2293.16 3543.56 2317.96 3541.28 2343.01C3539.76 2360 3538.11 2376.87 3536.08 2393.73C3533.55 2414.81 3530.38 2435.9 3526.58 2456.73C3519.6 2496.04 3510.85 2535.11 3500.08 2573.68C3486.44 2622.7 3469.76 2670.87 3450.13 2717.91C3449.41 2719.78 3448.57 2721.6 3447.59 2723.36C3446.73 2724.89 3445.39 2726.1 3443.77 2726.81C3442.15 2727.53 3440.33 2727.71 3438.59 2727.33C3437.71 2727.23 3436.85 2726.95 3436.09 2726.5C3435.33 2726.06 3434.67 2725.45 3434.16 2724.74C3433.66 2724.02 3433.32 2723.2 3433.16 2722.35C3433.01 2721.49 3433.04 2720.61 3433.27 2719.77C3433.61 2718.09 3434.16 2716.47 3434.92 2714.93C3460.34 2654.62 3480.77 2592.41 3496.02 2528.91C3503.88 2496.25 3510.39 2463.18 3515.55 2429.7C3518.97 2407.5 3521.63 2385.17 3524.17 2362.98C3525.05 2354.05 3525.69 2345.24 3526.45 2336.31C3526.6 2336.1 3526.69 2335.85 3526.72 2335.59C3526.74 2335.32 3526.69 2335.06 3526.58 2334.82Z" fill="url(#paint5_linear_813_42)"/>
<path fill-rule="evenodd" clip-rule="evenodd" d="M935.616 2260.28C935.616 2243.79 935.616 2227.17 935.616 2210.68C936.377 2182.9 937.518 2154.99 940.18 2127.22C942.97 2097.29 946.773 2067.44 951.59 2037.68C971.145 1916.9 1008.47 1799.52 1062.39 1689.2C1070.25 1673.2 1078.37 1657.2 1086.99 1641.57C1087.83 1639.77 1088.81 1638.03 1089.9 1636.37C1090.82 1635 1092.22 1634.01 1093.84 1633.6C1095.45 1633.18 1097.17 1633.37 1098.65 1634.13C1100.44 1634.81 1101.9 1636.11 1102.74 1637.79C1103.59 1639.47 1103.76 1641.39 1103.22 1643.19C1103.22 1644.55 1101.82 1645.79 1101.19 1647.16C1085.97 1675.31 1071.52 1703.83 1058.46 1732.97C1046.8 1759.02 1036.02 1785.31 1026.26 1812.09C1009.64 1857.36 995.713 1903.53 984.552 1950.37C976.819 1982.99 970.353 2015.97 965.155 2049.58C961.775 2071.99 958.943 2094.52 956.661 2117.17C955.14 2132.67 954.126 2148.17 953.112 2163.68C950.956 2195.42 949.942 2227.17 950.703 2259.04C950.703 2276.28 951.464 2293.52 952.858 2310.76C954.126 2326.01 954.887 2341.26 956.408 2356.52C957.929 2371.77 959.831 2387.4 961.732 2402.78C963.888 2420.14 966.677 2437.5 969.719 2454.74C975.551 2488.59 982.397 2522.08 991.778 2555.19C1006.09 2609.44 1024.13 2662.68 1045.79 2714.55C1046.49 2716.12 1047.08 2717.73 1047.56 2719.38C1047.83 2720.47 1047.82 2721.6 1047.53 2722.68C1047.24 2723.76 1046.68 2724.75 1045.9 2725.56C1045.12 2726.38 1044.14 2726.99 1043.06 2727.34C1041.98 2727.69 1040.82 2727.77 1039.7 2727.57C1038.31 2727.47 1036.97 2727.02 1035.81 2726.26C1034.66 2725.5 1033.72 2724.45 1033.11 2723.23C1032.22 2721.37 1031.46 2719.51 1030.7 2717.77C1006.02 2659.11 986.054 2598.66 970.987 2536.96C962.113 2500.99 955.013 2464.66 949.435 2428.07C945.97 2405.59 943.181 2383.06 941.068 2360.49C938.659 2334.69 936.631 2308.9 936.25 2282.98C936.25 2275.54 935.49 2268.22 935.109 2260.78L935.616 2260.28Z" fill="url(#paint6_linear_813_42)"/>
<path fill-rule="evenodd" clip-rule="evenodd" d="M2275.53 3508C2270.84 3508 2262.86 3508.74 2255.12 3508.62C2244.47 3508.62 2233.95 3507.87 2223.3 3507.62C2196.17 3507.62 2169.04 3506.26 2142.04 3504.28C2115.03 3502.29 2089.68 3499.56 2063.56 3496.09C2009.12 3488.88 1955.18 3478.4 1902.05 3464.72C1844.02 3449.65 1787.13 3430.67 1731.79 3407.92C1720.38 3403.2 1708.97 3398.24 1697.69 3393.41C1696.02 3392.79 1694.41 3392.04 1692.87 3391.18C1692.03 3390.88 1691.26 3390.42 1690.62 3389.81C1689.98 3389.21 1689.48 3388.47 1689.16 3387.66C1688.83 3386.85 1688.69 3385.98 1688.74 3385.11C1688.79 3384.24 1689.03 3383.39 1689.44 3382.62C1690.13 3380.86 1691.45 3379.41 1693.16 3378.54C1694.86 3377.68 1696.83 3377.45 1698.7 3377.91C1701.55 3378.87 1704.34 3379.99 1707.07 3381.25C1726.72 3389.94 1746.62 3398 1766.65 3406.06C1810.28 3422.67 1854.8 3436.96 1900.02 3448.84C1934.5 3458.02 1969.28 3465.75 2004.36 3472.03C2033.26 3477.24 2062.29 3481.33 2091.58 3484.43C2120.87 3487.53 2146.98 3489.77 2174.75 3491.26C2192.75 3492.12 2210.75 3493.12 2228.75 3492.87C2233.54 3492.79 2238.33 3493.08 2243.08 3493.74C2248.6 3494.17 2254.16 3494.17 2259.69 3493.74C2267.04 3493.74 2274.39 3493.12 2281.74 3492.99C2304.56 3492.99 2327.26 3490.88 2349.95 3489.02C2367.19 3487.53 2384.31 3485.8 2401.42 3483.81C2416.25 3482.2 2430.96 3479.97 2445.79 3477.74C2484.76 3471.78 2523.42 3464.01 2561.79 3454.42C2623.86 3439.28 2684.67 3419.58 2743.72 3395.52C2755 3390.93 2766.03 3386.09 2777.19 3381.25C2778.79 3380.56 2780.44 3379.98 2782.13 3379.52C2783.6 3379.14 2785.15 3379.22 2786.58 3379.73C2788.01 3380.24 2789.24 3381.16 2790.12 3382.37C2790.85 3383.08 2791.4 3383.94 2791.73 3384.9C2792.05 3385.86 2792.13 3386.88 2791.97 3387.87C2791.81 3388.86 2791.41 3389.81 2790.8 3390.62C2790.19 3391.43 2789.39 3392.09 2788.47 3392.54C2786.95 3393.41 2785.3 3394.03 2783.65 3394.77C2734.2 3416.71 2683.39 3435.6 2631.52 3451.32C2587.22 3464.58 2542.24 3475.55 2496.76 3484.19C2467.73 3489.77 2438.44 3494.48 2409.16 3498.2C2386.72 3500.93 2364.4 3503.28 2341.84 3504.9C2319.27 3506.51 2299.62 3507.13 2275.53 3508Z" fill="url(#paint7_linear_813_42)"/>
<path fill-rule="evenodd" clip-rule="evenodd" d="M2198.58 968.678L2228.24 967.934C2232.82 967.583 2237.41 967.791 2241.93 968.554C2243.16 968.681 2244.39 968.681 2245.61 968.554L2293.53 969.794C2315.08 970.414 2336.51 972.026 2357.93 973.887C2379.36 975.747 2398.25 977.731 2418.28 980.459C2445.92 984.056 2473.3 988.644 2500.69 993.977C2562.72 1006.21 2623.77 1022.79 2683.37 1043.58C2706.32 1051.52 2728.88 1060.2 2751.32 1069.25C2753.71 1070.14 2756.04 1071.17 2758.3 1072.35C2759.09 1072.75 2759.78 1073.32 2760.33 1074.01C2760.87 1074.7 2761.25 1075.5 2761.45 1076.35C2761.64 1077.21 2761.64 1078.09 2761.45 1078.94C2761.25 1079.79 2760.87 1080.59 2760.32 1081.28C2759.43 1082.8 2758.06 1083.99 2756.41 1084.66C2754.76 1085.33 2752.92 1085.45 2751.2 1085C2748.97 1084.4 2746.81 1083.61 2744.73 1082.65C2705.6 1066.53 2665.66 1052.35 2624.93 1040.11C2579.11 1026.38 2532.55 1015.12 2485.47 1006.38C2458.09 1001.25 2430.58 997.119 2402.94 993.977C2385.19 991.745 2367.19 990.381 2349.31 988.52C2331.44 986.66 2313.06 985.792 2294.8 985.048C2276.54 984.304 2260.82 985.048 2244.09 983.56C2227.36 982.072 2212.14 983.56 2196.17 983.56C2177.02 984.304 2158.14 985.668 2138.61 986.908C2125.93 987.776 2113.26 989.016 2100.58 990.381C2087.9 991.745 2071.8 993.481 2057.6 995.341C2037.7 998.193 2018.05 1001.42 1998.4 1004.89C1967.21 1010.59 1936.36 1017.37 1905.85 1025.23C1848.42 1040.04 1792.12 1058.78 1737.36 1081.28C1735.12 1082.37 1732.79 1083.29 1730.39 1084.01C1728.45 1084.66 1726.33 1084.59 1724.44 1083.82C1722.54 1083.04 1721.01 1081.61 1720.12 1079.79C1719.68 1079.11 1719.38 1078.35 1719.26 1077.55C1719.13 1076.75 1719.18 1075.93 1719.39 1075.15C1719.61 1074.37 1719.98 1073.64 1720.5 1073.01C1721.02 1072.38 1721.67 1071.86 1722.4 1071.49C1723.8 1070.74 1725.19 1070.25 1726.59 1069.63C1767.62 1052.65 1809.51 1037.75 1852.1 1024.98C1882.1 1015.89 1912.4 1007.95 1943 1001.17C1978.24 993.233 2013.86 986.66 2049.61 981.576C2075.73 977.979 2101.85 974.879 2128.09 972.771C2151.54 970.786 2175.12 969.422 2198.58 968.678Z" fill="url(#paint8_linear_813_42)"/>
<path fill-rule="evenodd" clip-rule="evenodd" d="M2724.96 3154.69C2719.51 3154.69 2714.05 3154.69 2708.6 3154.69C2705.77 3154.8 2702.99 3153.98 2700.69 3152.36C2698.39 3150.74 2696.72 3148.42 2695.92 3145.76C2694.66 3142.66 2693.39 3139.68 2692.37 3136.58C2687.18 3121.45 2682.23 3106.32 2676.91 3091.31C2668.03 3066.51 2658.91 3040.59 2649.9 3015.29C2649.92 3015 2649.92 3014.72 2649.9 3014.43C2648.38 3010.58 2646.74 3009.09 2644.45 3009.47C2642.17 3009.84 2640.27 3012.44 2639.51 3015.17C2635.07 3029.93 2630.76 3044.56 2626.2 3059.32C2620.24 3079.04 2613.52 3098.76 2607.81 3118.6C2605.28 3127.03 2602.74 3135.46 2599.95 3143.4C2599.37 3145.4 2598.52 3147.32 2597.42 3149.11C2596.62 3150.54 2595.45 3151.74 2594.02 3152.59C2592.6 3153.44 2590.97 3153.9 2589.31 3153.94H2556.72C2554.91 3154.13 2553.08 3154.13 2551.27 3153.94C2549.79 3153.7 2548.44 3152.96 2547.47 3151.83C2546.06 3149.95 2545.09 3147.78 2544.63 3145.49C2544.17 3143.2 2544.23 3140.83 2544.81 3138.56C2553.68 3114.75 2562.81 3091.07 2571.68 3067.26C2576.25 3054.85 2580.56 3043.45 2584.36 3031.42C2594.12 3005.12 2603.76 2978.71 2613.65 2952.42C2617.32 2942.37 2618.84 2941.63 2629.49 2942C2640.14 2942.37 2646.99 2942 2655.74 2942C2657.26 2942 2658.65 2942 2660.17 2942C2662.15 2941.86 2664.13 2942.35 2665.8 2943.4C2667.47 2944.45 2668.74 2946.01 2669.43 2947.83C2671.08 2951.67 2672.85 2955.4 2674.5 2959.24C2677.67 2966.56 2680.84 2973.87 2683.88 2981.31L2710.88 3046.05L2742.83 3122.07C2744.15 3126 2745.89 3129.79 2748.03 3133.36C2751.96 3138.94 2749.3 3144.52 2748.92 3150.22C2748.92 3152.45 2746.76 3154.07 2743.85 3154.19C2740.93 3154.31 2735.99 3154.19 2732.06 3154.19L2724.96 3154.69Z" fill="url(#paint9_linear_813_42)"/>
<path fill-rule="evenodd" clip-rule="evenodd" d="M1641.25 3154.68H1624.13C1621.69 3154.77 1619.27 3154.09 1617.26 3152.72C1615.25 3151.36 1613.75 3149.39 1612.98 3147.12C1612.39 3145.74 1611.89 3144.33 1611.46 3142.9C1606.89 3129.51 1602.45 3115.99 1597.89 3102.59L1583.95 3063.41L1569.24 3020.62C1568.48 3018.39 1567.84 3016.03 1567.08 3013.8C1566.74 3012.66 1566.05 3011.65 1565.09 3010.92C1564.14 3010.19 1562.97 3009.76 1561.76 3009.71C1559.6 3009.71 1557.7 3011.44 1556.81 3014.3C1554.91 3020.12 1553.14 3026.7 1551.36 3032.03C1545.15 3052.12 1538.69 3072.09 1532.85 3092.18C1528.42 3106.31 1524.23 3120.45 1520.18 3134.59L1516.75 3145.5C1516.03 3148.23 1514.39 3150.64 1512.08 3152.33C1509.78 3154.02 1506.95 3154.89 1504.08 3154.8C1492.54 3154.8 1481.13 3154.8 1469.72 3154.8C1468.79 3154.87 1467.86 3154.87 1466.93 3154.8C1465.89 3154.59 1464.98 3154 1464.39 3153.14C1463.8 3152.28 1463.57 3151.23 1463.76 3150.22C1463.76 3148.48 1465.16 3146.5 1463.76 3145.26C1462.37 3144.02 1461.35 3140.54 1463.13 3137.69C1463.87 3136.44 1464.46 3135.11 1464.9 3133.72C1469.97 3119.83 1474.92 3105.94 1480.12 3092.05C1488.36 3069.61 1496.98 3047.16 1505.47 3024.71L1520.56 2981.06C1524.23 2971.02 1527.78 2960.97 1531.46 2951.05C1531.8 2949.51 1532.45 2948.06 1533.39 2946.78C1534.33 2945.51 1535.52 2944.43 1536.9 2943.63C1538.28 2942.83 1539.82 2942.31 1541.41 2942.11C1543.01 2941.92 1544.62 2942.05 1546.17 2942.49C1555.46 2943.73 1564.89 2943.73 1574.18 2942.49C1575.65 2942.1 1577.18 2942.01 1578.68 2942.21C1580.19 2942.42 1581.63 2942.92 1582.94 2943.68C1584.24 2944.45 1585.37 2945.46 1586.26 2946.66C1587.15 2947.86 1587.79 2949.23 1588.13 2950.68C1592.57 2960.97 1596.88 2971.39 1600.81 2981.8L1627.18 3043.81C1632.5 3056.21 1637.7 3069.48 1643.15 3082.26C1650.38 3099.74 1657.73 3117.23 1665.08 3134.71C1665.84 3136.57 1667.11 3138.31 1668 3140.17C1668.89 3142.03 1668 3142.28 1668 3142.65C1666.91 3143.42 1666.13 3144.53 1665.79 3145.79C1665.44 3147.06 1665.55 3148.4 1666.1 3149.6C1666.24 3150.63 1665.96 3151.68 1665.32 3152.52C1664.68 3153.35 1663.73 3153.91 1662.67 3154.06C1660.86 3154.24 1659.03 3154.24 1657.22 3154.06L1641.25 3154.68Z" fill="url(#paint10_linear_813_42)"/>
<path fill-rule="evenodd" clip-rule="evenodd" d="M3009.57 3158.16C2988.29 3157.95 2967.58 3151.37 2950.24 3139.31C2944.26 3135.52 2939.31 3130.37 2935.82 3124.3C2932.33 3118.23 2930.41 3111.42 2930.21 3104.46C2929.57 3100.1 2929.19 3095.71 2929.07 3091.31C2929.07 3087.1 2930.72 3085.24 2934.9 3084.99C2941.81 3084.37 2948.75 3084.12 2955.69 3084.24C2963.05 3084.24 2966.47 3087.34 2966.98 3094.41C2967.42 3098.2 2968.8 3101.82 2971.02 3104.95C2973.23 3108.09 2976.19 3110.65 2979.65 3112.39C2984.53 3115.44 2990.02 3117.43 2995.75 3118.22C3006.7 3120.48 3018.04 3120.18 3028.84 3117.35C3033.2 3116.06 3037.22 3113.86 3040.63 3110.91C3041.66 3110.29 3042.57 3109.49 3043.3 3108.55C3044.69 3107.09 3045.78 3105.37 3046.48 3103.49C3047.19 3101.61 3047.5 3099.61 3047.41 3097.61C3047.31 3095.61 3046.81 3093.65 3045.93 3091.85C3045.05 3090.04 3043.81 3088.43 3042.28 3087.1C3038.52 3083.86 3034.24 3081.26 3029.6 3079.41C3020.78 3075.63 3011.71 3072.4 3002.47 3069.73C2994.99 3067.38 2987.51 3065.02 2980.16 3062.29C2968.8 3058.2 2958.38 3051.97 2949.48 3043.94C2945.23 3040.38 2941.75 3036.02 2939.24 3031.12C2936.74 3026.22 2935.26 3020.88 2934.9 3015.42C2934.01 3007.83 2934.01 3000.18 2934.9 2992.6C2935.92 2984.83 2938.81 2977.41 2943.33 2970.94C2947.85 2964.47 2953.86 2959.15 2960.89 2955.39C2969.58 2950.61 2979.14 2947.54 2989.04 2946.34C3000.91 2944.19 3013.07 2943.89 3025.04 2945.47C3043.43 2947.73 3060.32 2956.56 3072.45 2970.27C3079.24 2977.96 3083.64 2987.38 3085.13 2997.43C3085.33 3001.87 3084.82 3006.3 3083.61 3010.58C3083.41 3011.47 3082.98 3012.29 3082.36 3012.96C3081.74 3013.64 3080.94 3014.14 3080.06 3014.42C3078.43 3015.18 3076.67 3015.64 3074.86 3015.79C3070.05 3016.04 3065.23 3016.04 3060.41 3015.79C3057.3 3015.81 3054.28 3014.71 3051.94 3012.7C3049.61 3010.68 3048.11 3007.9 3047.73 3004.87C3047.2 3002.55 3046.11 3000.38 3044.56 2998.55C3037.93 2991 3029.03 2985.68 3019.14 2983.34C3009.24 2981 2998.84 2981.77 2989.42 2985.53C2984.65 2987.47 2980.34 2990.34 2976.74 2993.96C2974.51 2995.82 2973.06 2998.42 2972.69 3001.27C2972.31 3004.11 2973.03 3006.99 2974.71 3009.34C2976.53 3012.39 2979.1 3014.95 2982.19 3016.78C2990.96 3022.13 3000.43 3026.3 3010.33 3029.18C3024.98 3032.84 3039.17 3038.04 3052.68 3044.68C3057.78 3047.23 3062.58 3050.3 3067 3053.86C3074.23 3059.83 3079.72 3067.56 3082.93 3076.27C3086.13 3084.98 3086.94 3094.36 3085.26 3103.47C3084.76 3109.64 3083.43 3115.73 3081.33 3121.57C3078.5 3128.92 3073.97 3135.53 3068.1 3140.89C3062.23 3146.25 3055.17 3150.2 3047.48 3152.45C3035.22 3156.24 3022.43 3158.16 3009.57 3158.16Z" fill="url(#paint11_linear_813_42)"/>
<path fill-rule="evenodd" clip-rule="evenodd" d="M1935.77 3069.48V3135.83C1935.77 3139.67 1935.77 3143.52 1935.77 3147.36C1935.64 3149.15 1934.89 3150.83 1933.65 3152.14C1932.4 3153.45 1930.73 3154.3 1928.92 3154.55H1900.91C1896.47 3154.55 1894.95 3153.19 1894.06 3148.97C1893.11 3145.28 1892.6 3141.49 1892.54 3137.69C1892.54 3112.27 1892.54 3086.84 1892.54 3061.54C1891.65 3038.85 1891.78 3016.15 1891.4 2993.46C1891.4 2992.59 1891.4 2991.6 1891.4 2990.73C1891.34 2990.14 1891.06 2989.59 1890.62 2989.18C1890.18 2988.77 1889.6 2988.53 1888.99 2988.5C1886.58 2988.37 1884.17 2988.37 1881.76 2988.5H1831.56H1821.54C1820.01 2988.45 1818.54 2987.89 1817.37 2986.93C1816.2 2985.96 1815.39 2984.63 1815.08 2983.17C1814.29 2980.33 1813.82 2977.42 1813.68 2974.48C1813.68 2965.68 1813.68 2956.75 1813.68 2947.95C1813.68 2943.11 1815.08 2941.37 1820.02 2941.25C1824.97 2941.12 1832.7 2941.25 1839.93 2941.25C1842.34 2941.25 1844.74 2941.25 1847.03 2941.25C1871.49 2941.25 1895.96 2942.12 1920.43 2941.25C1944.9 2940.38 1967.97 2941.25 1991.8 2940.38H1999.03C2002.96 2940.38 2004.48 2942.24 2004.74 2945.96V2946.83C2004.74 2956.25 2004.74 2965.68 2004.74 2975.1C2004.74 2984.53 2001.44 2987.51 1992.06 2987.51H1947.69C1935.01 2987.51 1936.4 2987.51 1936.4 2998.92L1935.77 3069.48Z" fill="url(#paint12_linear_813_42)"/>
<path fill-rule="evenodd" clip-rule="evenodd" d="M2273.25 3154.68H2219.75C2217.05 3154.87 2214.34 3154.87 2211.64 3154.68C2209.83 3154.49 2208.17 3153.65 2206.97 3152.32C2205.77 3150.99 2205.13 3149.26 2205.17 3147.49C2205.17 3144.76 2205.17 3142.16 2205.17 3139.43C2205.17 3084.03 2204.83 3028.6 2204.16 2973.12V2950.93C2203.9 2948.91 2203.9 2946.87 2204.16 2944.85C2204.33 2943.66 2204.91 2942.57 2205.82 2941.76C2206.72 2940.94 2207.88 2940.46 2209.1 2940.38C2217.21 2940.38 2225.45 2939.64 2233.57 2940.38C2234.88 2940.32 2236.18 2940.54 2237.4 2941.02C2238.61 2941.5 2239.71 2942.23 2240.61 2943.16C2241.51 2944.09 2242.2 2945.19 2242.63 2946.41C2243.05 2947.62 2243.2 2948.91 2243.08 2950.18C2243.58 2954.55 2243.58 2958.96 2243.08 2963.33C2242.34 2969.5 2242.04 2975.72 2242.19 2981.93C2242.19 2994.33 2242.19 3006.73 2242.19 3020C2242.19 3023.47 2242.19 3027.07 2242.19 3030.54C2242.19 3034.02 2242.19 3034.14 2242.19 3035.88C2240.16 3056.71 2242.19 3077.67 2241.17 3098.63C2241.11 3099.2 2241.11 3099.79 2241.17 3100.36C2241.17 3108.42 2243.46 3110.28 2251.57 3110.41H2301.39C2308.63 3110.66 2315.87 3110.41 2323.07 3109.66C2327.9 3109.17 2332.78 3109.42 2337.52 3110.41C2338.75 3110.56 2339.86 3111.16 2340.66 3112.07C2341.46 3112.99 2341.88 3114.17 2341.84 3115.37C2341.84 3120.08 2341.84 3124.79 2341.84 3129.51C2342.15 3134.79 2342.15 3140.09 2341.84 3145.38C2340.31 3153.32 2338.79 3154.93 2330.55 3154.93H2272.74L2273.25 3154.68Z" fill="url(#paint13_linear_813_42)"/>
<path d="M2207.5 1406.9C2175.5 1436.9 2138.5 1414.9 2155 1390.9C2305.5 1253.4 2507.5 1205.9 2652 1253.4C2841 1455.4 2457.5 1951.4 2136.5 2019.9C2093.5 1971.9 2050.5 1897.9 2044 1857.4C2371 1800.4 2618.5 1270.4 2409 1296.9C2369 1300.4 2260.9 1359.9 2207.5 1406.9Z" fill="url(#paint14_linear_813_42)"/>
<path d="M2806.5 1341.4C3057 1574.9 2860.5 1928.4 2371 2111.4L2386.03 2131.9C2705.81 2051.71 2826.21 1963.8 2967 1752.9C2884 2060.9 2604 2170.4 2386.03 2131.9L2875.5 2799.4L2044 2499.9L1945.5 2726.9C2015.45 2720.73 2057.03 2716.49 2136.5 2706.9C1898.5 2766.4 1865 2840.9 1698 2846.4L1967 2343.4L2621.5 2599.4L2209.5 2124.9L2125.5 2240.9L2253 2343.4C2271.5 2353.9 2290.27 2353.6 2315.5 2343.4C2291 2367.9 2265.5 2381.9 2239.5 2373.9L1987.5 2269.4L2101.5 2060.9C2398 2025.4 2889 1672.4 2806.5 1341.4Z" fill="url(#paint15_linear_813_42)"/>
<path d="M1846.5 1916.4C1892.5 1911.4 1940.52 1959.17 1993 2019.9C1957.46 1943.67 1925 1899.9 1849.5 1887.4C1666 1878.4 1680.5 2126.29 1810.5 2202.9C1866.5 2235.9 1904.5 2209.9 1925 2152.4C1817.5 2275.9 1623 1975.4 1846.5 1916.4Z" fill="url(#paint16_linear_813_42)"/>
</g>
<defs>
<filter id="filter0_i_813_42" x="812" y="834" width="2875.16" height="2814.51" filterUnits="userSpaceOnUse" color-interpolation-filters="sRGB">
<feFlood flood-opacity="0" result="BackgroundImageFix"/>
<feBlend mode="normal" in="SourceGraphic" in2="BackgroundImageFix" result="shape"/>
<feColorMatrix in="SourceAlpha" type="matrix" values="0 0 0 0 0 0 0 0 0 0 0 0 0 0 0 0 0 0 127 0" result="hardAlpha"/>
<feOffset dy="-16"/>
<feGaussianBlur stdDeviation="9"/>
<feComposite in2="hardAlpha" operator="arithmetic" k2="-1" k3="1"/>
<feColorMatrix type="matrix" values="0 0 0 0 0.0901961 0 0 0 0 0.00784314 0 0 0 0 0.215686 0 0 0 0.3 0"/>
<feBlend mode="normal" in2="shape" result="effect1_innerShadow_813_42"/>
</filter>
<linearGradient id="paint0_linear_813_42" x1="2249.58" y1="850" x2="2249.58" y2="3648.51" gradientUnits="userSpaceOnUse">
<stop/>
<stop offset="1"/>
</linearGradient>
<linearGradient id="paint1_linear_813_42" x1="1322.91" y1="856.144" x2="1322.91" y2="1636.12" gradientUnits="userSpaceOnUse">
<stop/>
<stop offset="1"/>
</linearGradient>
<linearGradient id="paint2_linear_813_42" x1="3288.3" y1="918.205" x2="3288.3" y2="1744.62" gradientUnits="userSpaceOnUse">
<stop/>
<stop offset="1"/>
</linearGradient>
<linearGradient id="paint3_linear_813_42" x1="1260.86" y1="2694.16" x2="1260.86" y2="3627.1" gradientUnits="userSpaceOnUse">
<stop/>
<stop offset="1"/>
</linearGradient>
<linearGradient id="paint4_linear_813_42" x1="3226.5" y1="2830.64" x2="3226.5" y2="3639.72" gradientUnits="userSpaceOnUse">
<stop/>
<stop offset="1"/>
</linearGradient>
<linearGradient id="paint5_linear_813_42" x1="3461.23" y1="1634.46" x2="3461.23" y2="2727.52" gradientUnits="userSpaceOnUse">
<stop/>
<stop offset="1"/>
</linearGradient>
<linearGradient id="paint6_linear_813_42" x1="1019.32" y1="1633.38" x2="1019.32" y2="2727.67" gradientUnits="userSpaceOnUse">
<stop/>
<stop offset="1"/>
</linearGradient>
<linearGradient id="paint7_linear_813_42" x1="2240.39" y1="3377.67" x2="2240.39" y2="3508.63" gradientUnits="userSpaceOnUse">
<stop/>
<stop offset="1"/>
</linearGradient>
<linearGradient id="paint8_linear_813_42" x1="2240.39" y1="967.769" x2="2240.39" y2="1085.27" gradientUnits="userSpaceOnUse">
<stop/>
<stop offset="1"/>
</linearGradient>
<linearGradient id="paint9_linear_813_42" x1="2647.24" y1="2941.93" x2="2647.24" y2="3154.7" gradientUnits="userSpaceOnUse">
<stop/>
<stop offset="1"/>
</linearGradient>
<linearGradient id="paint10_linear_813_42" x1="1565.29" y1="2942.03" x2="1565.29" y2="3154.86" gradientUnits="userSpaceOnUse">
<stop/>
<stop offset="1"/>
</linearGradient>
<linearGradient id="paint11_linear_813_42" x1="3007.59" y1="2944.47" x2="3007.59" y2="3158.16" gradientUnits="userSpaceOnUse">
<stop/>
<stop offset="1"/>
</linearGradient>
<linearGradient id="paint12_linear_813_42" x1="1909.21" y1="2940.38" x2="1909.21" y2="3154.55" gradientUnits="userSpaceOnUse">
<stop/>
<stop offset="1"/>
</linearGradient>
<linearGradient id="paint13_linear_813_42" x1="2273.02" y1="2940.05" x2="2273.02" y2="3154.93" gradientUnits="userSpaceOnUse">
<stop/>
<stop offset="1"/>
</linearGradient>
<linearGradient id="paint14_linear_813_42" x1="2332.5" y1="1235.51" x2="2332.5" y2="2846.4" gradientUnits="userSpaceOnUse">
<stop/>
<stop offset="1"/>
</linearGradient>
<linearGradient id="paint15_linear_813_42" x1="2332.5" y1="1235.51" x2="2332.5" y2="2846.4" gradientUnits="userSpaceOnUse">
<stop/>
<stop offset="1"/>
</linearGradient>
<linearGradient id="paint16_linear_813_42" x1="2332.5" y1="1235.51" x2="2332.5" y2="2846.4" gradientUnits="userSpaceOnUse">
<stop/>
<stop offset="1"/>
</linearGradient>
</defs>
</svg>
