<svg width="49" height="48" viewBox="0 0 49 48" fill="none" xmlns="http://www.w3.org/2000/svg">
<path fill-rule="evenodd" clip-rule="evenodd" d="M48.8039 24.784C48.7993 25.1822 48.7742 25.5799 48.7286 25.9756C48.7006 26.2451 48.6748 26.5167 48.6404 26.7862C48.593 27.1483 48.5371 27.5062 48.4725 27.8662C48.3692 28.4347 48.2573 28.9989 48.1045 29.5505C47.8728 30.4559 47.5853 31.3466 47.2436 32.218C46.9142 33.0542 46.537 33.8717 46.1137 34.6665C45.8123 35.2279 45.4888 35.7809 45.143 36.3255C44.7398 36.9501 44.3094 37.5564 43.8517 38.1445C43.4815 38.6161 43.0941 39.0772 42.6895 39.5214C42.343 39.9003 41.9878 40.2709 41.6133 40.6267C41.0044 41.2122 40.3643 41.766 39.6957 42.2857C39.0239 42.8117 38.3249 43.3035 37.6016 43.7594C35.7789 44.8991 33.8106 45.7988 31.7475 46.4353C30.8626 46.707 29.9621 46.9277 29.0508 47.0964C28.6548 47.1701 28.2566 47.2353 27.8563 47.2859C27.5614 47.3238 27.2666 47.3596 26.9717 47.3869C26.6769 47.4143 26.3476 47.4438 26.0355 47.4627C25.8676 47.4739 25.6998 47.4824 25.5319 47.488C25.5039 47.488 25.4716 47.488 25.4501 47.509H23.5131C23.4937 47.4859 23.4679 47.4901 23.4421 47.488C23.2139 47.488 22.988 47.4711 22.7598 47.4543C22.5317 47.4375 22.2368 47.4122 21.9764 47.389C21.8021 47.3722 21.6256 47.3553 21.4513 47.3322C21.1736 47.2985 20.8981 47.2648 20.6205 47.2227C20.2611 47.1659 19.9017 47.1027 19.5444 47.0332C18.9202 46.909 18.3026 46.7637 17.6913 46.5932C15.9827 46.1195 14.3333 45.4614 12.7735 44.631C12.1995 44.3265 11.6393 43.9994 11.0926 43.65C10.4699 43.2513 9.86725 42.8268 9.28471 42.3762C8.85427 42.0394 8.42382 41.6857 8.00629 41.3236C7.58876 40.9614 7.24655 40.6309 6.88713 40.2709C6.3132 39.6898 5.77013 39.0842 5.2579 38.454C4.81023 37.901 4.38911 37.3297 3.99454 36.7402C3.59996 36.1507 3.24126 35.5598 2.91842 34.9675C2.04353 33.3708 1.35895 31.6811 0.878109 29.9316C0.713105 29.3295 0.569623 28.7217 0.447664 28.1084C0.372336 27.7168 0.309921 27.3252 0.253963 26.9315C0.208766 26.603 0.172178 26.2746 0.137743 25.9462C0.120525 25.8051 0.114068 25.662 0.103307 25.5251C0.0882414 25.3314 0.0731758 25.1398 0.0624146 24.9482C0.0516535 24.7567 0.0624146 24.6135 0.0451968 24.4451C0.0451968 24.3861 0.0451968 24.3293 0.0322834 24.2703C0.0319755 24.2599 0.0288224 24.2497 0.0231484 24.2408C0.0174743 24.2319 0.00948425 24.2247 0 24.2198V23.2661C0.0113002 23.2631 0.0209792 23.256 0.0270004 23.2461C0.0330215 23.2363 0.0349154 23.2246 0.0322834 23.2134C0.0322834 23.1566 0.0451968 23.0977 0.047349 23.0387C0.0602624 22.7629 0.0667191 22.4871 0.0860891 22.2113C0.109764 21.885 0.133438 21.5608 0.176483 21.2365C0.206614 21.0113 0.228136 20.7881 0.26042 20.5628C0.301312 20.2744 0.344357 19.9839 0.39601 19.6954C0.47349 19.2449 0.568188 18.7986 0.673648 18.3543C0.973916 17.103 1.37624 15.8773 1.87674 14.6889C2.17442 13.9796 2.50844 13.2853 2.87753 12.6089C3.40615 11.6394 4.00455 10.7079 4.66818 9.8214C5.05845 9.29927 5.46881 8.79329 5.89926 8.30345C6.18622 7.97923 6.48036 7.66272 6.78167 7.35394C6.98398 7.14341 7.18844 6.94551 7.39721 6.7455C7.94172 6.22969 8.50991 5.73494 9.10178 5.27176C9.69364 4.80859 10.307 4.36015 10.9376 3.94961C11.4527 3.61557 11.98 3.30047 12.5195 3.00432C12.9672 2.7601 13.4213 2.53272 13.8819 2.31798C14.5835 1.98954 15.3009 1.6962 16.0341 1.43795C16.9216 1.12228 17.827 0.857266 18.7459 0.644233C19.2897 0.52072 19.8328 0.413348 20.3751 0.322117C20.7568 0.26036 21.1392 0.206323 21.5223 0.160006C21.7224 0.134742 21.9226 0.117899 22.1249 0.0989508C22.3853 0.0757921 22.6458 0.0505281 22.9083 0.0336854C23.1709 0.0168427 23.4356 0.0105267 23.6939 0H23.795C24.2427 0 24.6904 0 25.138 0H25.2413C25.5362 0 25.8332 0.0231587 26.1281 0.0442121C26.283 0.0568441 26.438 0.0631601 26.5908 0.0778975C26.806 0.0968455 27.0212 0.117899 27.2365 0.141058C27.3979 0.1579 27.5614 0.176848 27.7229 0.200007C28.0285 0.244219 28.3341 0.28422 28.6397 0.334749C29.2036 0.429489 29.761 0.545282 30.3163 0.680024C31.1083 0.870908 31.8889 1.10109 32.6579 1.37057C33.7664 1.76071 34.8452 2.22715 35.8863 2.76641C36.8845 3.28342 37.8446 3.86802 38.7595 4.51595C39.2832 4.88508 39.7897 5.27317 40.279 5.6802C40.6233 5.96653 40.9548 6.26338 41.2841 6.56655C41.6133 6.86972 41.962 7.2192 42.287 7.56027C42.9725 8.27703 43.6115 9.03502 44.2003 9.82982C44.6135 10.3912 45.0024 10.9639 45.3668 11.5478C45.8329 12.3049 46.2561 13.0864 46.6345 13.8889C47.0528 14.7835 47.4123 15.7033 47.7106 16.6427C47.9258 17.3143 48.1088 17.9922 48.2637 18.6807C48.3756 19.1796 48.4682 19.6807 48.5457 20.186C48.6016 20.5544 48.6511 20.9228 48.6877 21.2934C48.7179 21.5902 48.7437 21.885 48.7652 22.1818C48.7803 22.3692 48.7846 22.5587 48.7889 22.7461C48.7889 23.005 48.7889 23.2619 48.7889 23.5208C48.788 23.5313 48.7895 23.5418 48.7932 23.5516C48.7969 23.5614 48.8028 23.5703 48.8104 23.5777V23.9293C48.8015 23.9431 48.7943 23.958 48.7889 23.9735C48.7889 24.0008 48.7889 24.0303 48.7889 24.0598L48.8039 24.784ZM22.8115 46.7111C22.8162 46.7153 22.8223 46.7175 22.8287 46.7175C22.835 46.7175 22.8412 46.7153 22.8459 46.7111C23.0116 46.7111 23.1795 46.7322 23.3474 46.7385C23.6444 46.749 23.9392 46.7595 24.2362 46.7616C24.4859 46.7616 24.7356 46.7616 24.9852 46.7616C25.4824 46.7469 25.9817 46.7237 26.4789 46.6837C26.8297 46.6543 27.1783 46.6164 27.5292 46.5722C28.0113 46.5111 28.4891 46.4353 28.9668 46.3427C30.7449 46.0029 32.4778 45.4668 34.1322 44.7447C34.9711 44.3774 35.7875 43.9627 36.5771 43.5026C37.3338 43.0624 38.0646 42.581 38.7659 42.0604C39.4467 41.5557 40.0984 41.0145 40.718 40.4393C41.1614 40.0295 41.5875 39.6028 41.9964 39.1593C42.4054 38.7157 42.7856 38.2729 43.1371 37.8308C44.1128 36.6055 44.9587 35.2864 45.6617 33.8938C46.0983 33.0252 46.4771 32.13 46.7959 31.2137C47.0496 30.4803 47.2651 29.7348 47.4416 28.98C47.5363 28.5799 47.6245 28.1799 47.6934 27.7736C47.7429 27.481 47.7945 27.1883 47.8376 26.8936C47.8699 26.683 47.8957 26.4536 47.9194 26.2346C47.943 26.0157 47.9581 25.8135 47.9796 25.603C48.0141 25.2809 48.0291 24.9588 48.0442 24.6367C48.0614 24.2156 48.0614 23.7945 48.0442 23.3735C48.0442 23.1629 48.0442 22.9355 48.0313 22.7187C48.0119 22.4092 48.0012 22.0997 47.9667 21.7923C47.943 21.5818 47.9301 21.3586 47.9043 21.1418C47.8613 20.8007 47.8161 20.4618 47.7601 20.1228C47.6719 19.5754 47.5643 19.0344 47.433 18.4954C46.331 13.9136 43.8155 9.77415 40.2273 6.63813C38.7785 5.37135 37.1768 4.28254 35.458 3.39591C34.7826 3.04505 34.0894 2.72813 33.3811 2.4464C32.1483 1.95151 30.8746 1.5606 29.5738 1.27794C29.1433 1.1825 28.7086 1.10039 28.2695 1.03162C28.0242 0.991614 27.7788 0.957928 27.5313 0.926348C27.2838 0.894768 27.0105 0.865293 26.7501 0.842135C26.4896 0.818976 26.1754 0.795817 25.8892 0.772659C25.5491 0.743184 25.2091 0.741079 24.8712 0.730552C24.3891 0.715815 23.907 0.730552 23.427 0.7495H23.2333C22.9277 0.770553 22.6242 0.789501 22.3208 0.814765C22.0173 0.84003 21.7461 0.865293 21.4599 0.901084C21.137 0.941086 20.8142 0.991614 20.4914 1.04004C19.9856 1.11583 19.4863 1.21688 18.9848 1.33057C17.0538 1.76994 15.1889 2.45139 13.4364 3.35801C12.5047 3.83773 11.606 4.37644 10.7461 4.9707C10.0744 5.43581 9.42784 5.93474 8.80907 6.46549C8.35854 6.85007 7.92809 7.25078 7.51774 7.66764C7.05572 8.13502 6.6138 8.61504 6.19196 9.10769C5.51661 9.9074 4.89819 10.7515 4.34105 11.6341C3.07675 13.6318 2.13315 15.8073 1.54315 18.0848C1.41832 18.5691 1.30856 19.0561 1.21386 19.546C1.15575 19.8618 1.09764 20.1776 1.05459 20.4997C1.01155 20.8218 0.972807 21.0955 0.938372 21.3965C0.912545 21.6281 0.899632 21.8639 0.878109 22.0955C0.841521 22.4766 0.828608 22.8576 0.815695 23.2366C0.802781 23.6156 0.815695 24.0493 0.815695 24.4556C0.815695 24.8619 0.858739 25.2977 0.895327 25.7356C0.923306 26.0851 0.964198 26.4346 1.01155 26.7883C1.07181 27.2367 1.14499 27.681 1.22677 28.1252C1.40349 29.0015 1.63274 29.8669 1.91333 30.7169C2.33838 32.0319 2.8874 33.3055 3.55333 34.5212C3.85608 35.0728 4.17963 35.6111 4.52398 36.136C5.33051 37.3605 6.25207 38.5086 7.27669 39.5656C7.63109 39.9319 7.99768 40.2828 8.37647 40.6183C8.9504 41.1404 9.55231 41.6316 10.1822 42.092C11.3341 42.9446 12.5648 43.6903 13.8582 44.3194C14.4838 44.6254 15.1237 44.9061 15.778 45.1616C16.7313 45.5269 17.7075 45.8321 18.7007 46.0753C19.3306 46.2283 19.9662 46.3567 20.6076 46.4606C21.0058 46.5237 21.4061 46.5806 21.8064 46.6227C22.1443 46.6585 22.4714 46.6837 22.8115 46.7111Z" fill="url(#paint0_linear_885_660)"/>
<path fill-rule="evenodd" clip-rule="evenodd" d="M16.2556 0.21669C16.2579 0.241958 16.2518 0.267283 16.2382 0.288902C16.2246 0.310521 16.2043 0.327282 16.1802 0.336694L16.1178 0.364064C15.5087 0.574597 14.9061 0.785131 14.3142 1.03988C13.6514 1.31778 12.9978 1.62095 12.3536 1.94938C11.552 2.37112 10.774 2.83424 10.0227 3.3368C9.32825 3.80278 8.65747 4.29964 8.01037 4.82738C7.22888 5.46849 6.48652 6.1539 5.78711 6.88008C5.27488 7.41343 4.78776 7.96644 4.32575 8.53909C3.89531 9.07665 3.48495 9.62965 3.09468 10.1981C2.64701 10.8578 2.23235 11.5378 1.85069 12.2382C1.67851 12.5666 1.50418 12.8971 1.34276 13.2361C1.34276 13.2508 1.3277 13.2677 1.31909 13.2803C1.31336 13.294 1.30476 13.3063 1.29384 13.3165C1.28293 13.3266 1.26995 13.3345 1.25574 13.3394C1.24154 13.3444 1.22642 13.3464 1.21138 13.3453C1.19634 13.3442 1.18171 13.34 1.16843 13.3329C1.13907 13.32 1.11548 13.2971 1.10203 13.2684C1.08858 13.2398 1.08617 13.2074 1.09526 13.1771C1.09526 13.154 1.11678 13.1308 1.12754 13.1077C1.60149 12.1308 2.14071 11.1856 2.74171 10.2781C3.22551 9.55071 3.74703 8.84802 4.30423 8.17276C4.63782 7.76853 4.98649 7.37484 5.34591 6.99167C5.70533 6.60849 6.10995 6.19795 6.51242 5.8211C7.154 5.2197 7.82636 4.65052 8.5269 4.11577C9.12379 3.66102 9.73932 3.23223 10.3735 2.82941C10.9302 2.47572 11.5042 2.14307 12.0953 1.83148C12.8034 1.44621 13.5351 1.10725 14.2884 0.785131C14.8537 0.549333 15.4277 0.333185 16.0102 0.136687C16.0453 0.12427 16.0812 0.114418 16.1178 0.107213C16.1345 0.103334 16.1519 0.10326 16.1686 0.106996C16.1853 0.110732 16.2009 0.118178 16.2143 0.128759C16.2276 0.139339 16.2382 0.152772 16.2454 0.168018C16.2525 0.183265 16.256 0.199917 16.2556 0.21669V0.21669Z" fill="url(#paint1_linear_885_660)"/>
<path fill-rule="evenodd" clip-rule="evenodd" d="M35.4893 1.15784C35.5195 1.1583 35.5491 1.16627 35.5753 1.181L35.8315 1.301C36.9941 1.85465 38.1121 2.4937 39.176 3.21265C39.8088 3.63371 40.4214 4.08706 41.014 4.57269C41.4 4.88569 41.7766 5.20991 42.1439 5.54536C42.5357 5.89906 42.9101 6.26749 43.2782 6.64224C43.3529 6.71171 43.42 6.78862 43.4783 6.87172C43.5185 6.92123 43.564 6.9664 43.6139 7.00646C44.0099 7.42753 44.3887 7.8486 44.7546 8.30335C45.3096 8.97875 45.829 9.68144 46.3107 10.4087C46.688 10.9785 47.041 11.5631 47.3696 12.1624C47.8676 13.0706 48.3082 14.0079 48.6889 14.9688C48.6889 14.9899 48.7061 15.0089 48.7126 15.0278C48.7255 15.0524 48.728 15.081 48.7195 15.1074C48.7111 15.1338 48.6923 15.1559 48.6674 15.1689C48.6395 15.1858 48.606 15.1916 48.5739 15.1849C48.5418 15.1782 48.5136 15.1596 48.4952 15.1331C48.4767 15.1054 48.4616 15.0757 48.45 15.0446C48.3639 14.8341 48.2821 14.6236 48.196 14.4257C47.8581 13.6341 47.4766 12.861 47.0532 12.1098C46.6514 11.3884 46.2131 10.6866 45.7382 10.0045C45.3077 9.39813 44.8579 8.81074 44.3887 8.2423C44.0702 7.86334 43.7431 7.4949 43.4009 7.13068C43.3298 7.05489 43.2653 6.97278 43.1856 6.89909C43.106 6.8254 43.0393 6.7454 42.9704 6.66961L42.7358 6.43592L42.5077 6.21486L42.2774 5.9938C41.7479 5.50325 41.2013 5.02955 40.6374 4.57901C40.029 4.09759 39.3999 3.64424 38.7499 3.21896C38.2018 2.85965 37.6386 2.52139 37.0604 2.20419C36.6299 1.9705 36.1995 1.74944 35.769 1.54101L35.4893 1.41258L35.4182 1.3789C35.3946 1.36828 35.3756 1.34963 35.3649 1.3264C35.3543 1.30318 35.3525 1.27695 35.3601 1.25258C35.37 1.22629 35.3875 1.20336 35.4104 1.18655C35.4333 1.16974 35.4607 1.15977 35.4893 1.15784V1.15784Z" fill="url(#paint2_linear_885_660)"/>
<path fill-rule="evenodd" clip-rule="evenodd" d="M15.1502 47.0332C15.1507 47.052 15.1462 47.0707 15.1372 47.0873C15.1282 47.104 15.1149 47.1181 15.0987 47.1283C15.0824 47.1384 15.0638 47.1443 15.0445 47.1454C15.0253 47.1464 15.0061 47.1426 14.9888 47.1342C14.8403 47.0669 14.6875 47.0121 14.5368 46.949C13.9127 46.6879 13.3014 46.3995 12.701 46.0921C11.6739 45.5635 10.6845 44.9678 9.73951 44.3089C9.1584 43.9046 8.59596 43.4773 8.05216 43.0267C7.78313 42.8035 7.52056 42.5741 7.26014 42.3446C6.78019 41.9235 6.32392 41.4667 5.87626 41.0098C5.84446 40.9812 5.81757 40.9478 5.79662 40.9108C5.78985 40.896 5.78037 40.8824 5.76864 40.8708C5.52329 40.6393 5.30591 40.3866 5.08424 40.1361C4.65379 39.6434 4.23984 39.1346 3.8424 38.6097C3.34308 37.943 2.87748 37.2546 2.4456 36.5444C2.11846 36.0082 1.81285 35.4601 1.52875 34.9001C1.08963 34.0365 0.702292 33.1487 0.368703 32.2411C0.284766 32.0095 0.205134 31.7758 0.123349 31.54C0.112588 31.5126 0.106131 31.4853 0.0953699 31.4579C0.0907135 31.4438 0.088973 31.4289 0.09025 31.4142C0.091527 31.3994 0.0957959 31.385 0.102808 31.3719C0.10982 31.3588 0.119434 31.3471 0.13109 31.3377C0.142746 31.3282 0.15621 31.3211 0.170698 31.3168C0.198494 31.3051 0.229822 31.3043 0.258243 31.3144C0.286663 31.3246 0.310018 31.3451 0.323506 31.3716C0.341563 31.4048 0.3553 31.4402 0.364398 31.4768C0.536577 31.9863 0.723821 32.4902 0.92613 32.9885C1.5968 34.6236 2.44383 36.184 3.45285 37.6434C3.92634 38.3297 4.43283 38.9908 4.97232 39.6266C5.25641 39.9613 5.54912 40.2919 5.85258 40.6119L5.8698 40.6308C6.18833 40.9803 6.54775 41.3424 6.90287 41.6835C7.25799 42.0246 7.60234 42.3298 7.96607 42.6372C8.55004 43.1341 9.15554 43.6029 9.78255 44.0436C10.4684 44.5278 11.1779 44.9777 11.9111 45.3931C12.7323 45.8614 13.5802 46.2831 14.4507 46.6563C14.6315 46.7342 14.8145 46.8079 14.9952 46.8837C15.0282 46.8954 15.0599 46.9102 15.0899 46.9279C15.1085 46.9388 15.1237 46.9543 15.1343 46.9727C15.1449 46.9912 15.1503 47.012 15.1502 47.0332Z" fill="url(#paint3_linear_885_660)"/>
<path fill-rule="evenodd" clip-rule="evenodd" d="M33.7679 47.3595C33.7437 47.3617 33.7194 47.3552 33.6997 47.3413C33.6799 47.3273 33.6659 47.3069 33.6603 47.2837C33.6511 47.2598 33.6498 47.2337 33.6568 47.2091C33.6638 47.1845 33.6786 47.1627 33.6991 47.1469C33.7349 47.1245 33.7731 47.1061 33.8131 47.0921C33.9767 47.029 34.1424 46.9679 34.306 46.9027C35.1697 46.5615 36.0132 46.1736 36.8327 45.7405C37.6061 45.3276 38.3575 44.8765 39.0839 44.3889C39.7698 43.9285 40.432 43.4373 41.0705 42.9151C41.8197 42.2991 42.5325 41.6419 43.2055 40.9467C43.6531 40.4856 44.0814 40.0035 44.4968 39.5087C45.7977 37.946 46.8985 36.2336 47.7746 34.4096C47.8715 34.199 47.964 33.9885 48.0587 33.7906C48.0765 33.7478 48.0974 33.7063 48.1212 33.6664C48.134 33.6466 48.1542 33.6325 48.1775 33.627C48.2008 33.6215 48.2253 33.6251 48.246 33.6369C48.2795 33.6517 48.3058 33.6786 48.3194 33.712C48.3331 33.7453 48.333 33.7826 48.3192 33.8159C48.2697 33.9169 48.2288 34.0264 48.1814 34.1254C47.9562 34.6194 47.7151 35.1057 47.4583 35.5844C47.1419 36.176 46.7975 36.7507 46.4317 37.3149C45.9391 38.0721 45.4045 38.8024 44.8304 39.5024C44.4559 39.9614 44.0664 40.4077 43.6574 40.8393C43.326 41.1909 42.9859 41.5362 42.6351 41.8688C42.2327 42.2456 41.8194 42.6141 41.3954 42.9678C40.5558 43.6682 39.6717 44.3159 38.7482 44.9068C38.1714 45.2752 37.5817 45.6184 36.9791 45.9426C36.3764 46.2668 35.791 46.5469 35.1777 46.8163C34.7472 47.003 34.3168 47.1785 33.8863 47.3427C33.8483 47.3555 33.8081 47.3613 33.7679 47.3595V47.3595Z" fill="url(#paint4_linear_885_660)"/>
<path fill-rule="evenodd" clip-rule="evenodd" d="M46.0849 25.2073C46.1043 24.8262 46.1258 24.4451 46.1365 24.0641C46.1365 23.8304 46.1473 23.5946 46.1365 23.3609C46.1365 23.0388 46.1258 22.7167 46.1043 22.3945C46.0763 21.944 46.0375 21.4935 45.9816 21.0429C45.8797 20.2286 45.7324 19.4204 45.5404 18.6218C45.234 17.3534 44.8074 16.1157 44.2663 14.9248C44.0618 14.4722 43.8358 14.0258 43.6034 13.59C43.5828 13.5581 43.5655 13.5242 43.5517 13.489C43.5399 13.4595 43.5401 13.4268 43.552 13.3975C43.564 13.3682 43.587 13.3444 43.6163 13.3311C43.6429 13.3174 43.6737 13.3139 43.7028 13.3213C43.7318 13.3287 43.757 13.3464 43.7734 13.3711C43.7927 13.3986 43.8099 13.4275 43.8251 13.4574C44.3259 14.3668 44.7575 15.3112 45.1164 16.2827C45.447 17.19 45.7159 18.1177 45.9213 19.0597C46.0404 19.6141 46.1387 20.1706 46.2162 20.7292C46.2657 21.0829 46.3044 21.4366 46.3302 21.7819C46.3561 22.1272 46.3711 22.4345 46.3884 22.7609C46.412 23.1967 46.412 23.6325 46.4013 24.0662C46.3905 24.4999 46.3733 24.9209 46.3346 25.3462C46.3087 25.6347 46.2807 25.921 46.2463 26.2073C46.2033 26.5652 46.1495 26.9231 46.0849 27.2768C45.9665 27.9442 45.818 28.6074 45.6351 29.2621C45.4036 30.0944 45.1204 30.9121 44.7871 31.7107C44.775 31.7425 44.7606 31.7734 44.7441 31.8033C44.7294 31.8292 44.7067 31.8497 44.6791 31.8618C44.6516 31.874 44.6207 31.8771 44.5912 31.8707C44.5762 31.869 44.5617 31.8642 44.5488 31.8566C44.5358 31.8491 44.5246 31.8388 44.5161 31.8266C44.5075 31.8145 44.5017 31.8006 44.4991 31.7861C44.4965 31.7715 44.4971 31.7565 44.5009 31.7422C44.5066 31.7138 44.516 31.6862 44.5288 31.6601C44.9604 30.6363 45.3073 29.5802 45.5662 28.5021C45.6996 27.9477 45.8101 27.3863 45.8976 26.8179C45.9558 26.441 46.001 26.062 46.044 25.6852C46.0591 25.5336 46.0698 25.3841 46.0827 25.2325C46.0853 25.2289 46.0869 25.2246 46.0873 25.2202C46.0877 25.2157 46.0868 25.2113 46.0849 25.2073V25.2073Z" fill="url(#paint5_linear_885_660)"/>
<path fill-rule="evenodd" clip-rule="evenodd" d="M2.09845 23.9418C2.09845 23.6618 2.09845 23.3797 2.09845 23.0997C2.11137 22.6281 2.13074 22.1544 2.17593 21.6828C2.22328 21.1747 2.28785 20.668 2.36963 20.1627C2.70161 18.1123 3.33519 16.1196 4.25068 14.2467C4.38412 13.9751 4.52186 13.7035 4.66821 13.4383C4.68258 13.4077 4.69912 13.3781 4.71772 13.3498C4.73321 13.3266 4.75702 13.3098 4.78448 13.3028C4.81194 13.2958 4.84108 13.2991 4.86622 13.3119C4.89652 13.3233 4.92132 13.3455 4.93567 13.374C4.95003 13.4025 4.9529 13.4352 4.9437 13.4656C4.9437 13.4888 4.92002 13.5098 4.90926 13.533C4.651 14.0109 4.40564 14.4951 4.18396 14.9899C3.98596 15.432 3.80302 15.8784 3.6373 16.3331C3.3551 17.1015 3.11868 17.8853 2.92921 18.6806C2.79793 19.2343 2.68816 19.7943 2.59992 20.3648C2.54253 20.7452 2.49446 21.1277 2.45572 21.5122C2.4299 21.7754 2.41268 22.0386 2.39546 22.3017C2.35887 22.8407 2.34165 23.3797 2.35457 23.9207C2.35457 24.2134 2.36748 24.506 2.39116 24.7987C2.41268 25.0576 2.42559 25.3166 2.45142 25.5755C2.47724 25.8345 2.50953 26.0998 2.54181 26.3608C2.5784 26.6556 2.62575 26.9503 2.6774 27.243C2.7764 27.8177 2.89263 28.3862 3.05189 28.9483C3.29482 29.8693 3.60113 30.7731 3.96874 31.6536C3.98071 31.6803 3.99077 31.7077 3.99887 31.7358C4.00348 31.7541 4.00332 31.7734 3.9984 31.7917C3.99347 31.81 3.98395 31.8268 3.9707 31.8406C3.95744 31.8545 3.94087 31.8648 3.92248 31.8707C3.9041 31.8767 3.88449 31.8781 3.86543 31.8747C3.84183 31.873 3.81908 31.8654 3.79944 31.8524C3.77981 31.8395 3.76397 31.8218 3.75352 31.801C3.73845 31.7694 3.72554 31.7379 3.71262 31.7084C3.29363 30.7125 2.9547 29.6862 2.69892 28.6388C2.54827 28.0283 2.42774 27.4114 2.33305 26.7903C2.27422 26.4085 2.22687 26.0261 2.191 25.6429C2.15011 25.205 2.11567 24.7671 2.10921 24.3271C2.10921 24.2007 2.0963 24.0765 2.08984 23.9502L2.09845 23.9418Z" fill="url(#paint6_linear_885_660)"/>
<path fill-rule="evenodd" clip-rule="evenodd" d="M24.8447 45.1236C24.7651 45.1236 24.6295 45.1362 24.4982 45.1341C24.3174 45.1341 24.1388 45.1214 23.958 45.1172C23.4974 45.1172 23.0368 45.0941 22.5784 45.0604C22.12 45.0267 21.6895 44.9804 21.2462 44.9214C20.3219 44.7989 19.4062 44.6211 18.5042 44.3888C17.5191 44.133 16.5534 43.8109 15.6138 43.4245C15.4201 43.3445 15.2264 43.2603 15.0348 43.1782C15.0066 43.1677 14.9792 43.1551 14.953 43.1403C14.9388 43.1354 14.9258 43.1275 14.9149 43.1172C14.9041 43.1069 14.8956 43.0945 14.8901 43.0807C14.8846 43.0669 14.8821 43.0521 14.883 43.0373C14.8838 43.0226 14.8879 43.0082 14.8949 42.9951C14.9066 42.9652 14.929 42.9406 14.958 42.9259C14.9869 42.9111 15.0204 42.9073 15.0521 42.9151C15.1004 42.9314 15.1478 42.9504 15.1941 42.9719C15.5277 43.1193 15.8656 43.2561 16.2056 43.393C16.9463 43.6751 17.7022 43.9175 18.4698 44.1193C19.0552 44.2751 19.6456 44.4063 20.2411 44.513C20.7318 44.6014 21.2246 44.6709 21.7218 44.7235C22.219 44.7762 22.6623 44.8141 23.1337 44.8393C23.4393 44.8541 23.7449 44.8709 24.0505 44.8667C24.1319 44.8654 24.2132 44.8703 24.2937 44.8814C24.3876 44.8888 24.4818 44.8888 24.5757 44.8814C24.7005 44.8814 24.8253 44.8709 24.9502 44.8688C25.3376 44.8688 25.7228 44.833 26.108 44.8014C26.4008 44.7762 26.6913 44.7467 26.9819 44.713C27.2337 44.6856 27.4833 44.6478 27.7351 44.6099C28.3966 44.5088 29.053 44.3769 29.7044 44.2141C30.7581 43.9569 31.7905 43.6226 32.7929 43.214C32.9844 43.1361 33.1717 43.054 33.3611 42.9719C33.3883 42.9602 33.4164 42.9503 33.445 42.9424C33.4699 42.9361 33.4963 42.9373 33.5205 42.946C33.5447 42.9546 33.5657 42.9703 33.5806 42.9908C33.593 43.0028 33.6024 43.0176 33.6079 43.0338C33.6133 43.05 33.6148 43.0673 33.612 43.0842C33.6093 43.1011 33.6025 43.1171 33.5921 43.1309C33.5818 43.1447 33.5682 43.1559 33.5526 43.1635C33.5268 43.1782 33.4988 43.1888 33.4708 43.2014C32.6313 43.5738 31.7687 43.8945 30.8881 44.1614C30.136 44.3864 29.3724 44.5726 28.6003 44.7193C28.1075 44.8141 27.6103 44.8941 27.1131 44.9572C26.7322 45.0036 26.3534 45.0436 25.9703 45.0709C25.5872 45.0983 25.2536 45.1088 24.8447 45.1236Z" fill="url(#paint7_linear_885_660)"/>
<path fill-rule="evenodd" clip-rule="evenodd" d="M23.5407 2.01471L24.0443 2.00208C24.122 1.99612 24.2001 1.99965 24.2768 2.0126C24.2975 2.01476 24.3185 2.01476 24.3392 2.0126L25.1527 2.03366C25.5186 2.04418 25.8823 2.07155 26.2461 2.10313C26.6098 2.13471 26.9305 2.1684 27.2705 2.21471C27.7397 2.27577 28.2046 2.35367 28.6695 2.4442C29.7225 2.65193 30.759 2.93336 31.7708 3.28633C32.1604 3.42107 32.5435 3.56845 32.9244 3.72214C32.965 3.73712 33.0046 3.75471 33.0428 3.77477C33.0563 3.78156 33.068 3.79116 33.0773 3.80289C33.0865 3.81463 33.093 3.82821 33.0963 3.84267C33.0996 3.85714 33.0996 3.87213 33.0963 3.88659C33.093 3.90105 33.0865 3.91463 33.0772 3.92635C33.0621 3.95211 33.0388 3.97227 33.0107 3.9837C32.9827 3.99512 32.9516 3.99716 32.9223 3.98951C32.8846 3.97932 32.8479 3.96594 32.8125 3.94951C32.1482 3.67582 31.4702 3.43511 30.7787 3.22738C30.0008 2.99436 29.2105 2.80319 28.4112 2.65473C27.9463 2.56771 27.4793 2.49753 27.0101 2.4442C26.7088 2.4063 26.4032 2.38314 26.0997 2.35156C25.7963 2.31998 25.4842 2.30524 25.1743 2.29261C24.8643 2.27998 24.5975 2.29261 24.3134 2.26735C24.0293 2.24208 23.771 2.26735 23.4998 2.26735C23.1748 2.27998 22.8542 2.30314 22.5227 2.32419C22.3075 2.33893 22.0923 2.35998 21.877 2.38314C21.6618 2.4063 21.3885 2.43578 21.1474 2.46736C20.8095 2.51578 20.4759 2.57052 20.1424 2.62947C19.6129 2.72631 19.0892 2.8414 18.5712 2.97474C17.5963 3.22626 16.6405 3.54424 15.7109 3.92635C15.6728 3.94485 15.6332 3.96034 15.5925 3.97267C15.5596 3.98375 15.5236 3.98257 15.4914 3.96937C15.4593 3.95617 15.4332 3.93187 15.4182 3.90109C15.4107 3.88951 15.4057 3.87651 15.4035 3.86293C15.4014 3.84935 15.4022 3.83548 15.4058 3.82221C15.4095 3.80894 15.4159 3.79656 15.4247 3.78585C15.4335 3.77515 15.4445 3.76636 15.457 3.76003C15.4806 3.7474 15.5043 3.73898 15.528 3.72845C16.2245 3.44031 16.9357 3.18734 17.6587 2.97053C18.168 2.81614 18.6824 2.6814 19.2018 2.56631C19.8001 2.43156 20.4049 2.31998 21.0119 2.23366C21.4552 2.17261 21.8986 2.11997 22.3441 2.08418C22.7422 2.0505 23.1426 2.02734 23.5407 2.01471Z" fill="url(#paint8_linear_885_660)"/>
<path fill-rule="evenodd" clip-rule="evenodd" d="M32.4727 39.1257C32.3802 39.1257 32.2876 39.1257 32.1951 39.1257C32.147 39.1275 32.0997 39.1136 32.0607 39.0862C32.0217 39.0587 31.9933 39.0192 31.9798 38.9741C31.9583 38.9214 31.9368 38.8709 31.9196 38.8183C31.8313 38.5614 31.7474 38.3046 31.657 38.0498C31.5063 37.6288 31.3514 37.1888 31.1986 36.7593C31.1989 36.7544 31.1989 36.7494 31.1986 36.7445C31.1728 36.6793 31.1448 36.654 31.106 36.6603C31.0673 36.6666 31.035 36.7108 31.0221 36.7572C30.9468 37.0077 30.8736 37.2561 30.7961 37.5067C30.695 37.8414 30.5809 38.1762 30.484 38.513C30.441 38.6562 30.3979 38.7993 30.3506 38.9341C30.3407 38.9681 30.3262 39.0007 30.3076 39.0309C30.294 39.0552 30.2741 39.0756 30.2499 39.09C30.2257 39.1044 30.1981 39.1124 30.1698 39.113H29.6167C29.5859 39.1162 29.5549 39.1162 29.5241 39.113C29.499 39.109 29.4761 39.0963 29.4596 39.0772C29.4357 39.0452 29.4193 39.0084 29.4114 38.9695C29.4036 38.9306 29.4046 38.8905 29.4144 38.852C29.565 38.4477 29.72 38.0456 29.8707 37.6414C29.9481 37.4309 30.0213 37.2372 30.0859 37.033C30.2516 36.5866 30.4152 36.1382 30.583 35.6919C30.6455 35.5213 30.6713 35.5087 30.8521 35.515C31.0329 35.5213 31.1491 35.515 31.2976 35.515C31.3234 35.515 31.3471 35.515 31.3729 35.515C31.4065 35.5125 31.4401 35.5209 31.4684 35.5387C31.4968 35.5566 31.5184 35.583 31.53 35.614C31.558 35.6792 31.5881 35.7424 31.6161 35.8077C31.6699 35.9319 31.7237 36.0561 31.7754 36.1824L32.2338 37.2814L32.7762 38.572C32.7985 38.6387 32.8281 38.7029 32.8644 38.7635C32.9311 38.8583 32.8859 38.953 32.8795 39.0499C32.8795 39.0878 32.8429 39.1151 32.7934 39.1172C32.7439 39.1193 32.6599 39.1172 32.5932 39.1172L32.4727 39.1257Z" fill="url(#paint9_linear_885_660)"/>
<path fill-rule="evenodd" clip-rule="evenodd" d="M14.0751 39.1255H13.7846C13.743 39.1271 13.7021 39.1155 13.6679 39.0923C13.6338 39.0691 13.6082 39.0357 13.5952 38.9971C13.5853 38.9737 13.5767 38.9498 13.5693 38.9255C13.4919 38.6981 13.4165 38.4687 13.3391 38.2413L13.1023 37.576L12.8527 36.8497C12.8397 36.8118 12.829 36.7718 12.8161 36.7339C12.8103 36.7145 12.7984 36.6974 12.7822 36.685C12.766 36.6725 12.7463 36.6653 12.7257 36.6644C12.6891 36.6644 12.6568 36.6939 12.6417 36.7423C12.6095 36.8412 12.5793 36.9528 12.5492 37.0434C12.4437 37.3844 12.334 37.7234 12.235 38.0644C12.1596 38.3044 12.0886 38.5445 12.0197 38.7845L11.9616 38.9697C11.9494 39.0161 11.9215 39.0569 11.8823 39.0856C11.8432 39.1143 11.7953 39.1291 11.7464 39.1276C11.5506 39.1276 11.3569 39.1276 11.1632 39.1276C11.1474 39.1288 11.1316 39.1288 11.1158 39.1276C11.0982 39.1241 11.0828 39.1139 11.0727 39.0994C11.0627 39.0848 11.0588 39.067 11.062 39.0497C11.062 39.0203 11.0857 38.9866 11.062 38.9655C11.0383 38.9445 11.0211 38.8855 11.0512 38.8371C11.0638 38.8158 11.074 38.7932 11.0814 38.7697C11.1675 38.5339 11.2514 38.2981 11.3396 38.0623C11.4795 37.6813 11.6259 37.3002 11.7701 36.9191L12.0262 36.1781C12.0886 36.0075 12.1489 35.837 12.2113 35.6686C12.217 35.6425 12.2281 35.6178 12.244 35.5961C12.2599 35.5745 12.2803 35.5562 12.3037 35.5426C12.3271 35.529 12.3532 35.5202 12.3803 35.5169C12.4073 35.5136 12.4348 35.5157 12.4609 35.5233C12.6188 35.5443 12.7788 35.5443 12.9366 35.5233C12.9615 35.5167 12.9875 35.5151 13.013 35.5186C13.0385 35.522 13.0631 35.5305 13.0852 35.5435C13.1073 35.5565 13.1265 35.5737 13.1416 35.5941C13.1568 35.6145 13.1676 35.6377 13.1733 35.6623C13.2487 35.837 13.3218 36.0138 13.3886 36.1907L13.8362 37.2434C13.9266 37.4539 14.0149 37.6792 14.1074 37.896C14.2301 38.1929 14.3549 38.4897 14.4797 38.7866C14.4927 38.8182 14.5142 38.8476 14.5292 38.8792C14.5443 38.9108 14.5292 38.915 14.5292 38.9213C14.5108 38.9344 14.4976 38.9532 14.4917 38.9747C14.4858 38.9961 14.4877 39.0189 14.497 39.0392C14.4994 39.0568 14.4947 39.0746 14.4838 39.0888C14.4729 39.103 14.4568 39.1124 14.4388 39.115C14.4081 39.1181 14.3771 39.1181 14.3463 39.115L14.0751 39.1255Z" fill="url(#paint10_linear_885_660)"/>
<path fill-rule="evenodd" clip-rule="evenodd" d="M37.3042 39.1846C36.9429 39.1812 36.5913 39.0695 36.2969 38.8646C36.1954 38.8004 36.1114 38.713 36.0522 38.6099C35.9929 38.5068 35.9602 38.3912 35.9569 38.273C35.9461 38.199 35.9396 38.1245 35.9375 38.0498C35.9375 37.9782 35.9655 37.9467 36.0365 37.9425C36.1538 37.932 36.2717 37.9278 36.3895 37.9298C36.5143 37.9298 36.5724 37.9825 36.581 38.1025C36.5885 38.1667 36.612 38.2282 36.6496 38.2814C36.6871 38.3347 36.7375 38.3781 36.7962 38.4077C36.8791 38.4594 36.9723 38.4932 37.0696 38.5067C37.2554 38.545 37.4478 38.5399 37.6313 38.492C37.7053 38.4699 37.7735 38.4326 37.8315 38.3825C37.8489 38.372 37.8643 38.3584 37.8767 38.3425C37.9004 38.3176 37.9188 38.2884 37.9308 38.2565C37.9427 38.2247 37.9481 38.1908 37.9465 38.1568C37.9449 38.1229 37.9364 38.0896 37.9214 38.0589C37.9065 38.0283 37.8854 38.0008 37.8594 37.9782C37.7956 37.9233 37.7229 37.8792 37.6442 37.8477C37.4943 37.7837 37.3405 37.7288 37.1836 37.6835C37.0567 37.6435 36.9297 37.6035 36.8048 37.5572C36.612 37.4877 36.4351 37.3819 36.284 37.2456C36.2118 37.1851 36.1527 37.1111 36.1102 37.028C36.0677 36.9448 36.0426 36.8541 36.0365 36.7614C36.0214 36.6327 36.0214 36.5027 36.0365 36.374C36.0538 36.2421 36.1029 36.1161 36.1796 36.0063C36.2562 35.8966 36.3584 35.8061 36.4777 35.7424C36.6252 35.6613 36.7875 35.6091 36.9555 35.5887C37.1572 35.5522 37.3635 35.5472 37.5667 35.574C37.879 35.6123 38.1657 35.7622 38.3717 35.995C38.4868 36.1255 38.5615 36.2855 38.5869 36.4561C38.5903 36.5313 38.5816 36.6066 38.5611 36.6793C38.5577 36.6943 38.5504 36.7083 38.5398 36.7197C38.5292 36.7312 38.5158 36.7397 38.5008 36.7445C38.473 36.7574 38.4432 36.7652 38.4126 36.7677C38.3308 36.7719 38.2489 36.7719 38.1672 36.7677C38.1143 36.7681 38.0632 36.7494 38.0235 36.7152C37.9838 36.681 37.9583 36.6338 37.952 36.5824C37.9429 36.543 37.9245 36.5062 37.8982 36.475C37.7855 36.3468 37.6345 36.2565 37.4665 36.2168C37.2985 36.1772 37.122 36.1902 36.962 36.254C36.881 36.2869 36.8078 36.3356 36.7467 36.3971C36.7089 36.4287 36.6843 36.4729 36.678 36.5212C36.6716 36.5694 36.6838 36.6183 36.7123 36.6582C36.7431 36.7101 36.7868 36.7535 36.8393 36.7845C36.9882 36.8753 37.1489 36.9461 37.3171 36.9951C37.5657 37.0573 37.8067 37.1455 38.0359 37.2582C38.1225 37.3014 38.204 37.3537 38.2791 37.414C38.4018 37.5154 38.4951 37.6466 38.5495 37.7945C38.6039 37.9423 38.6175 38.1015 38.589 38.2562C38.5805 38.361 38.5581 38.4643 38.5223 38.5635C38.4743 38.6883 38.3975 38.8006 38.2978 38.8915C38.1981 38.9824 38.0783 39.0496 37.9477 39.0878C37.7395 39.1521 37.5225 39.1848 37.3042 39.1846V39.1846Z" fill="url(#paint11_linear_885_660)"/>
<path fill-rule="evenodd" clip-rule="evenodd" d="M19.0765 37.6792V38.8056C19.0765 38.8708 19.0765 38.9361 19.0765 39.0014C19.0743 39.0317 19.0616 39.0603 19.0405 39.0825C19.0193 39.1048 18.991 39.1192 18.9603 39.1235H18.4846C18.4093 39.1235 18.3835 39.1003 18.3684 39.0287C18.3523 38.966 18.3437 38.9018 18.3426 38.8371C18.3426 38.4055 18.3426 37.974 18.3426 37.5445C18.3275 37.1592 18.3297 36.7739 18.3232 36.3886C18.3232 36.3739 18.3232 36.3571 18.3232 36.3423C18.3222 36.3322 18.3175 36.3229 18.31 36.3159C18.3025 36.309 18.2927 36.3049 18.2823 36.3044C18.2415 36.3023 18.2005 36.3023 18.1597 36.3044H17.3074H17.1373C17.1113 36.3035 17.0864 36.2941 17.0665 36.2777C17.0466 36.2613 17.0329 36.2388 17.0276 36.2139C17.0141 36.1658 17.0062 36.1163 17.0039 36.0665C17.0039 35.917 17.0039 35.7655 17.0039 35.616C17.0039 35.5339 17.0276 35.5044 17.1115 35.5023C17.1955 35.5002 17.3267 35.5023 17.4494 35.5023C17.4903 35.5023 17.5312 35.5023 17.5699 35.5023C17.9853 35.5023 18.4007 35.517 18.8161 35.5023C19.2315 35.4875 19.6232 35.5023 20.0278 35.4875H20.1505C20.2172 35.4875 20.243 35.5191 20.2473 35.5823V35.597C20.2473 35.757 20.2473 35.917 20.2473 36.077C20.2473 36.2371 20.1914 36.2876 20.0321 36.2876H19.2788C19.0636 36.2876 19.0873 36.2876 19.0873 36.4813L19.0765 37.6792Z" fill="url(#paint12_linear_885_660)"/>
<path fill-rule="evenodd" clip-rule="evenodd" d="M24.8051 39.1256H23.8969C23.851 39.1287 23.805 39.1287 23.7591 39.1256C23.7285 39.1224 23.7002 39.1081 23.6799 39.0855C23.6595 39.0628 23.6487 39.0336 23.6494 39.0035C23.6494 38.9571 23.6494 38.9129 23.6494 38.8666C23.6494 37.9262 23.6436 36.9851 23.6321 36.0434V35.6665C23.6278 35.6322 23.6278 35.5976 23.6321 35.5633C23.6351 35.5432 23.645 35.5246 23.6603 35.5108C23.6756 35.497 23.6953 35.4888 23.7161 35.4875C23.8538 35.4875 23.9937 35.4749 24.1315 35.4875C24.1537 35.4865 24.1759 35.4902 24.1965 35.4983C24.2171 35.5065 24.2357 35.5188 24.2511 35.5346C24.2664 35.5504 24.278 35.5692 24.2852 35.5898C24.2925 35.6104 24.2951 35.6322 24.2929 35.6539C24.3015 35.728 24.3015 35.8029 24.2929 35.877C24.2803 35.9818 24.2753 36.0874 24.2778 36.1928C24.2778 36.4034 24.2778 36.6139 24.2778 36.8392C24.2778 36.8981 24.2778 36.9592 24.2778 37.0181C24.2778 37.0771 24.2778 37.0792 24.2778 37.1087C24.2434 37.4624 24.2778 37.8182 24.2606 38.174C24.2594 38.1837 24.2594 38.1936 24.2606 38.2034C24.2606 38.3403 24.2993 38.3719 24.4371 38.374H25.2829C25.4057 38.3782 25.5287 38.3739 25.6509 38.3613C25.7329 38.3529 25.8157 38.3572 25.8963 38.374C25.917 38.3766 25.936 38.3866 25.9495 38.4022C25.9631 38.4178 25.9702 38.4377 25.9695 38.4582C25.9695 38.5382 25.9695 38.6182 25.9695 38.6982C25.9748 38.7879 25.9748 38.8779 25.9695 38.9677C25.9436 39.1024 25.9178 39.1298 25.7779 39.1298H24.7965L24.8051 39.1256Z" fill="url(#paint13_linear_885_660)"/>
<path d="M23.6886 9.45419C23.1454 9.96348 22.5173 9.59 22.7974 9.18256C25.3523 6.84829 28.7816 6.0419 31.2347 6.84829C34.4433 10.2776 27.9328 18.6979 22.4833 19.8608C21.7533 19.0459 21.0233 17.7897 20.9129 17.1021C26.4643 16.1345 30.666 7.13689 27.1094 7.58677C26.4303 7.64619 24.5951 8.65629 23.6886 9.45419Z" fill="url(#paint14_linear_885_660)"/>
<path d="M33.8576 8.34223C38.1102 12.3063 34.7743 18.3075 26.4643 21.4142L26.7195 21.7622C32.1481 20.4009 34.1923 18.9085 36.5823 15.3281C35.1733 20.5569 30.4198 22.4158 26.7195 21.7622L35.0289 33.094L20.9129 28.0096L19.2408 31.8632C20.4283 31.7586 21.1342 31.6866 22.4833 31.5237C18.4429 32.5338 17.8741 33.7986 15.0391 33.8919L19.6058 25.3527L30.7169 29.6987L23.7226 21.6434L22.2965 23.6126L24.461 25.3527C24.7751 25.531 25.0938 25.5259 25.5221 25.3527C25.1062 25.7687 24.6733 26.0063 24.2319 25.8705L19.9538 24.0965L21.8891 20.5569C26.9226 19.9542 35.2581 13.9615 33.8576 8.34223Z" fill="url(#paint15_linear_885_660)"/>
<path d="M17.5601 18.1037C18.341 18.0189 19.1562 18.8298 20.0471 19.8608C19.4438 18.5667 18.8927 17.8236 17.611 17.6114C14.4958 17.4586 14.742 21.667 16.9489 22.9675C17.8996 23.5278 18.5447 23.0864 18.8927 22.1102C17.0678 24.2068 13.7658 19.1054 17.5601 18.1037Z" fill="url(#paint16_linear_885_660)"/>
<defs>
<linearGradient id="paint0_linear_885_660" x1="24.4052" y1="0" x2="24.4052" y2="47.509" gradientUnits="userSpaceOnUse">
<stop stop-color="#FEE3BF"/>
<stop offset="1" stop-color="#FEE3BF"/>
</linearGradient>
<linearGradient id="paint1_linear_885_660" x1="8.67294" y1="0.104248" x2="8.67294" y2="13.3456" gradientUnits="userSpaceOnUse">
<stop stop-color="#FEE3BF"/>
<stop offset="1" stop-color="#FEE3BF"/>
</linearGradient>
<linearGradient id="paint2_linear_885_660" x1="42.04" y1="1.15784" x2="42.04" y2="15.1876" gradientUnits="userSpaceOnUse">
<stop stop-color="#FEE3BF"/>
<stop offset="1" stop-color="#FEE3BF"/>
</linearGradient>
<linearGradient id="paint3_linear_885_660" x1="7.62005" y1="31.3074" x2="7.62005" y2="47.1455" gradientUnits="userSpaceOnUse">
<stop stop-color="#FEE3BF"/>
<stop offset="1" stop-color="#FEE3BF"/>
</linearGradient>
<linearGradient id="paint4_linear_885_660" x1="40.991" y1="33.6245" x2="40.991" y2="47.3599" gradientUnits="userSpaceOnUse">
<stop stop-color="#FEE3BF"/>
<stop offset="1" stop-color="#FEE3BF"/>
</linearGradient>
<linearGradient id="paint5_linear_885_660" x1="44.9756" y1="13.3175" x2="44.9756" y2="31.8739" gradientUnits="userSpaceOnUse">
<stop stop-color="#FEE3BF"/>
<stop offset="1" stop-color="#FEE3BF"/>
</linearGradient>
<linearGradient id="paint6_linear_885_660" x1="3.51942" y1="13.2992" x2="3.51942" y2="31.8765" gradientUnits="userSpaceOnUse">
<stop stop-color="#FEE3BF"/>
<stop offset="1" stop-color="#FEE3BF"/>
</linearGradient>
<linearGradient id="paint7_linear_885_660" x1="24.2481" y1="42.9111" x2="24.2481" y2="45.1343" gradientUnits="userSpaceOnUse">
<stop stop-color="#FEE3BF"/>
<stop offset="1" stop-color="#FEE3BF"/>
</linearGradient>
<linearGradient id="paint8_linear_885_660" x1="24.2506" y1="1.99927" x2="24.2506" y2="3.99406" gradientUnits="userSpaceOnUse">
<stop stop-color="#FEE3BF"/>
<stop offset="1" stop-color="#FEE3BF"/>
</linearGradient>
<linearGradient id="paint9_linear_885_660" x1="31.1533" y1="35.5138" x2="31.1533" y2="39.1258" gradientUnits="userSpaceOnUse">
<stop stop-color="#FEE3BF"/>
<stop offset="1" stop-color="#FEE3BF"/>
</linearGradient>
<linearGradient id="paint10_linear_885_660" x1="12.7855" y1="35.5154" x2="12.7855" y2="39.1285" gradientUnits="userSpaceOnUse">
<stop stop-color="#FEE3BF"/>
<stop offset="1" stop-color="#FEE3BF"/>
</linearGradient>
<linearGradient id="paint11_linear_885_660" x1="37.2705" y1="35.557" x2="37.2705" y2="39.1846" gradientUnits="userSpaceOnUse">
<stop stop-color="#FEE3BF"/>
<stop offset="1" stop-color="#FEE3BF"/>
</linearGradient>
<linearGradient id="paint12_linear_885_660" x1="18.6256" y1="35.4875" x2="18.6256" y2="39.1235" gradientUnits="userSpaceOnUse">
<stop stop-color="#FEE3BF"/>
<stop offset="1" stop-color="#FEE3BF"/>
</linearGradient>
<linearGradient id="paint13_linear_885_660" x1="24.8012" y1="35.4819" x2="24.8012" y2="39.1298" gradientUnits="userSpaceOnUse">
<stop stop-color="#FEE3BF"/>
<stop offset="1" stop-color="#FEE3BF"/>
</linearGradient>
<linearGradient id="paint14_linear_885_660" x1="25.8107" y1="6.54456" x2="25.8107" y2="33.8919" gradientUnits="userSpaceOnUse">
<stop stop-color="#FEE3BF"/>
<stop offset="1" stop-color="#FEE3BF"/>
</linearGradient>
<linearGradient id="paint15_linear_885_660" x1="25.8107" y1="6.54456" x2="25.8107" y2="33.8919" gradientUnits="userSpaceOnUse">
<stop stop-color="#FEE3BF"/>
<stop offset="1" stop-color="#FEE3BF"/>
</linearGradient>
<linearGradient id="paint16_linear_885_660" x1="25.8107" y1="6.54456" x2="25.8107" y2="33.8919" gradientUnits="userSpaceOnUse">
<stop stop-color="#FEE3BF"/>
<stop offset="1" stop-color="#FEE3BF"/>
</linearGradient>
</defs>
</svg>
